<?xml version="1.0" encoding="UTF-8"?>
<svg width="50px" height="102px" viewBox="0 0 50 102" version="1.1" xmlns="http://www.w3.org/2000/svg" xmlns:xlink="http://www.w3.org/1999/xlink">
    <!-- Generator: Sketch 47.1 (45422) - http://www.bohemiancoding.com/sketch -->
    <title>Icon_Analyst / Pressed</title>
    <desc>Created with Sketch.</desc>
    <defs></defs>
    <g id="Wireframes-and-Visual" stroke="none" stroke-width="1" fill="none" fill-rule="evenodd">
        <g id="Elements" transform="translate(-841.000000, -110.000000)" fill-rule="nonzero" fill="#666666">
            <g id="Icon_Analyst-/-Pressed" transform="translate(838.000000, 110.000000)">
                <g id="Analyst_Chinese_1_" transform="translate(3.000000, 0.000000)">
                    <path d="M24.9202128,76.4893617 C20.8244681,76.4893617 16.0638298,73.643617 11.8882979,68.6968085 C8.2712766,64.3882979 5.82446809,59.3351064 5.82446809,56.1170213 L5.82446809,41.1170213 C5.82446809,40.5319149 6.30319149,40.0531915 6.88829787,40.0531915 C7.47340426,40.0531915 7.95212766,40.5319149 7.95212766,41.1170213 L7.95212766,56.1170213 C7.95212766,61.4095745 17.0212766,74.3617021 24.9202128,74.3617021 C33.1914894,74.3617021 41.8882979,61.7021277 41.8882979,56.1170213 L41.8882979,42.1808511 C41.8882979,41.5957447 42.3670213,41.1170213 42.9521277,41.1170213 C43.537234,41.1170213 44.0159574,41.5957447 44.0159574,42.1808511 L44.0159574,56.1170213 C44.0159574,62.4734043 34.787234,76.4893617 24.9202128,76.4893617 Z" id="Shape"></path>
                    <path d="M46.9148936,49.8138298 C46.3297872,49.8138298 45.8510638,49.3351064 45.8510638,48.75 L45.8510638,39.3617021 C45.8510638,27.9787234 36.5691489,18.6968085 25.1861702,18.6968085 C13.8031915,18.6968085 4.5212766,27.9787234 4.5212766,39.3617021 L4.5212766,47.5265957 C4.5212766,48.1117021 4.04255319,48.5904255 3.45744681,48.5904255 C2.87234043,48.5904255 2.39361702,48.1117021 2.39361702,47.5265957 L2.39361702,39.3617021 C2.39361702,26.7819149 12.606383,16.5691489 25.1861702,16.5691489 C37.7659574,16.5691489 47.9787234,26.7819149 47.9787234,39.3617021 L47.9787234,48.75 C47.9787234,49.3351064 47.5,49.8138298 46.9148936,49.8138298 Z" id="Shape"></path>
                    <path d="M6.75531915,58.9893617 C3.11170213,58.9893617 0.159574468,56.037234 0.159574468,52.393617 C0.159574468,48.75 3.11170213,45.7978723 6.75531915,45.7978723 C7.34042553,45.7978723 7.81914894,46.2765957 7.81914894,46.8617021 C7.81914894,47.4468085 7.34042553,47.9255319 6.75531915,47.9255319 C4.28191489,47.9255319 2.28723404,49.9202128 2.28723404,52.393617 C2.28723404,54.8670213 4.28191489,56.8617021 6.75531915,56.8617021 C7.34042553,56.8617021 7.81914894,57.3404255 7.81914894,57.9255319 C7.81914894,58.5106383 7.34042553,58.9893617 6.75531915,58.9893617 Z" id="Shape"></path>
                    <path d="M42.9521277,59.5212766 C42.3670213,59.5212766 41.8882979,59.0425532 41.8882979,58.4574468 C41.8882979,57.8723404 42.3670213,57.393617 42.9521277,57.393617 C45.4255319,57.393617 47.4202128,55.3989362 47.4202128,52.9255319 C47.4202128,50.4521277 45.4255319,48.4574468 42.9521277,48.4574468 C42.3670213,48.4574468 41.8882979,47.9787234 41.8882979,47.393617 C41.8882979,46.8085106 42.3670213,46.3297872 42.9521277,46.3297872 C46.5957447,46.3297872 49.5478723,49.2819149 49.5478723,52.9255319 C49.5478723,56.5691489 46.5957447,59.5212766 42.9521277,59.5212766 Z" id="Shape"></path>
                    <path d="M35.5585106,43.9361702 C29.8670213,43.9361702 24.3085106,41.8617021 20.4255319,38.2180851 C17.8191489,35.7712766 16.3297872,32.8989362 16.3297872,30.3457447 C16.3297872,29.7606383 16.8085106,29.2819149 17.393617,29.2819149 C17.9787234,29.2819149 18.4574468,29.7606383 18.4574468,30.3457447 C18.4574468,32.3138298 19.7074468,34.6276596 21.8882979,36.6489362 C25.7180851,40.212766 31.356383,42.1276596 36.9680851,41.7553191 C39.0425532,41.5957447 41.037234,41.3031915 42.7659574,41.037234 C43.3510638,40.9574468 43.8829787,41.356383 43.9893617,41.9414894 C44.0691489,42.5265957 43.6702128,43.0585106 43.0851064,43.1648936 C41.3297872,43.4308511 39.2819149,43.7234043 37.1276596,43.8829787 C36.5957447,43.9095745 36.0638298,43.9361702 35.5585106,43.9361702 Z" id="Shape"></path>
                    <path d="M37.7393617,37.0744681 C33.7765957,37.0744681 30.2393617,36.143617 27.6861702,34.3351064 C27.2074468,33.9893617 27.1010638,33.3244681 27.4468085,32.8457447 C27.7925532,32.3670213 28.4574468,32.2606383 28.9361702,32.606383 C31.9148936,34.7606383 37.9787234,36.143617 46.0638298,33.6170213 C46.6223404,33.4308511 47.2340426,33.75 47.393617,34.3085106 C47.5531915,34.8670213 47.2606383,35.4787234 46.7021277,35.6382979 C43.643617,36.5957447 40.5851064,37.0744681 37.7393617,37.0744681 Z" id="Shape"></path>
                    <path d="M6.99468085,41.9148936 C6.54255319,41.9148936 6.11702128,41.6223404 5.98404255,41.1702128 C5.79787234,40.6117021 6.11702128,40 6.67553191,39.8404255 C11.3829787,38.3776596 15.0797872,34.6276596 16.3031915,30.0531915 C16.462766,29.4946809 17.0478723,29.1489362 17.606383,29.3085106 C18.1648936,29.4680851 18.5106383,30.0531915 18.3510638,30.6117021 C16.9414894,35.9042553 12.712766,40.212766 7.28723404,41.8882979 C7.20744681,41.8882979 7.10106383,41.9148936 6.99468085,41.9148936 Z" id="Shape"></path>
                    <path d="M36.4893617,20.7180851 C36.3031915,20.7180851 36.1170213,20.6648936 35.9574468,20.5851064 C35.4521277,20.2925532 35.2659574,19.6542553 35.5585106,19.1223404 C37.5531915,15.6117021 37.5531915,11.3031915 35.5319149,7.81914894 C34.0159574,5.21276596 31.5691489,3.32446809 28.6702128,2.55319149 C25.7446809,1.78191489 22.712766,2.18085106 20.106383,3.69680851 C14.9468085,6.67553191 13.0053191,13.2180851 15.6648936,18.537234 C15.9308511,19.0691489 15.7180851,19.7074468 15.1861702,19.9734043 C14.6542553,20.2393617 14.0159574,20.0265957 13.75,19.4946809 C10.5851064,13.1648936 12.8989362,5.39893617 19.0159574,1.86170213 C22.1276596,0.0531914894 25.7446809,-0.425531915 29.2021277,0.505319149 C32.6595745,1.43617021 35.5585106,3.64361702 37.3670213,6.75531915 C39.7606383,10.8776596 39.787234,16.037234 37.4202128,20.1861702 C37.2340426,20.5319149 36.8617021,20.7180851 36.4893617,20.7180851 Z" id="Shape"></path>
                    <path d="M32.2606383,18.2712766 C32.0744681,18.2712766 31.8882979,18.2180851 31.7287234,18.1382979 C31.2234043,17.8457447 31.037234,17.1808511 31.3297872,16.6755319 C32.4468085,14.7606383 32.4468085,12.393617 31.3297872,10.4521277 C30.0797872,8.29787234 27.6595745,7.07446809 25.1595745,7.39361702 C24.3085106,7.5 23.537234,7.76595745 22.8191489,8.19148936 C22.3138298,8.48404255 21.6489362,8.32446809 21.356383,7.79255319 C21.0638298,7.28723404 21.2234043,6.62234043 21.7553191,6.32978723 C22.712766,5.7712766 23.7765957,5.42553191 24.9202128,5.26595745 C28.2712766,4.86702128 31.5159574,6.4893617 33.1914894,9.38829787 C34.6808511,11.9680851 34.6808511,15.1595745 33.1914894,17.7393617 C32.9787234,18.0851064 32.6329787,18.2712766 32.2606383,18.2712766 Z" id="Shape"></path>
                    <path d="M13.9361702,49.0957447 C13.8031915,49.0957447 13.6702128,49.0691489 13.5638298,49.0159574 C13.0053191,48.8031915 12.7393617,48.1914894 12.9521277,47.6329787 C13.4840426,46.25 14.9202128,45.2925532 16.5159574,45.2925532 C18.1648936,45.2925532 19.4414894,46.4361702 19.9734043,47.5531915 C20.212766,48.0851064 20,48.7234043 19.4680851,48.962766 C18.9361702,49.2021277 18.2978723,48.9893617 18.0585106,48.4574468 C17.8191489,47.9521277 17.2340426,47.4202128 16.5159574,47.4202128 C15.8244681,47.4202128 15.1595745,47.8191489 14.9468085,48.3776596 C14.7606383,48.8297872 14.3617021,49.0957447 13.9361702,49.0957447 Z" id="Shape"></path>
                    <path d="M31.0638298,49.0957447 C30.9308511,49.0957447 30.7978723,49.0691489 30.6914894,49.0159574 C30.1329787,48.8031915 29.8670213,48.1914894 30.0797872,47.6329787 C30.6117021,46.25 32.0478723,45.2925532 33.643617,45.2925532 C35.2925532,45.2925532 36.5691489,46.4361702 37.1010638,47.5531915 C37.3404255,48.0851064 37.1276596,48.7234043 36.5957447,48.962766 C36.0638298,49.2021277 35.4255319,48.9893617 35.1861702,48.4574468 C34.9468085,47.9521277 34.3617021,47.4202128 33.643617,47.4202128 C32.9521277,47.4202128 32.287234,47.8191489 32.0744681,48.3776596 C31.8882979,48.8297872 31.4893617,49.0957447 31.0638298,49.0957447 Z" id="Shape"></path>
                    <path d="M24.8404255,57.5531915 C23.6170213,57.5531915 22.5,57.0212766 21.9148936,56.1702128 C21.5691489,55.6914894 21.7021277,55.0265957 22.1808511,54.6808511 C22.6595745,54.3351064 23.3244681,54.4680851 23.6702128,54.9468085 C23.8297872,55.1861702 24.2553191,55.4255319 24.8404255,55.4255319 C25.2925532,55.4255319 25.7446809,55.106383 25.9840426,54.8404255 C26.3829787,54.4148936 27.0478723,54.3617021 27.4734043,54.7606383 C27.8989362,55.1595745 27.9521277,55.8244681 27.5531915,56.25 C26.8617021,57.0744681 25.8244681,57.5531915 24.8404255,57.5531915 Z" id="Shape"></path>
                    <path d="M24.8404255,67.6595745 C22.287234,67.6595745 20.7446809,66.2765957 19.5212766,65 C19.1223404,64.5744681 19.1223404,63.9095745 19.5478723,63.4840426 C19.9734043,63.0851064 20.6382979,63.0851064 21.0638298,63.5106383 C22.0744681,64.5744681 23.1382979,65.5319149 24.8670213,65.5319149 C26.462766,65.5319149 27.5531915,64.5478723 28.5638298,63.5106383 C28.962766,63.0851064 29.6542553,63.0851064 30.0797872,63.4840426 C30.5053191,63.8829787 30.5053191,64.5744681 30.106383,65 C28.7234043,66.3829787 27.1542553,67.6595745 24.8404255,67.6595745 Z" id="Shape"></path>
                    <path d="M24.5744681,88.643617 C21.7553191,88.643617 19.4414894,86.3297872 19.4414894,83.5106383 L19.4414894,74.5478723 C19.4414894,73.962766 19.9202128,73.4840426 20.5053191,73.4840426 C21.0904255,73.4840426 21.5691489,73.962766 21.5691489,74.5478723 L21.5691489,83.5106383 C21.5691489,85.1595745 22.9255319,86.5159574 24.5744681,86.5159574 C26.2234043,86.5159574 27.5797872,85.1595745 27.5797872,83.5106383 L27.5797872,74.8138298 C27.5797872,74.2287234 28.0585106,73.75 28.643617,73.75 C29.2287234,73.75 29.7074468,74.2287234 29.7074468,74.8138298 L29.7074468,83.5106383 C29.7074468,86.3297872 27.393617,88.643617 24.5744681,88.643617 Z" id="Shape"></path>
                    <path d="M46.462766,101.143617 L2.39361702,101.143617 C1.80851064,101.143617 1.32978723,100.664894 1.32978723,100.079787 L1.32978723,92.712766 C1.32978723,90.7978723 1.32978723,85.7446809 5.10638298,83.7765957 C5.13297872,83.7765957 5.13297872,83.75 5.15957447,83.75 L20.0531915,77.0744681 C20.5851064,76.8351064 21.2234043,77.0744681 21.462766,77.606383 C21.7021277,78.1382979 21.462766,78.7765957 20.9308511,79.0159574 L6.06382979,85.6914894 C3.48404255,87.0478723 3.48404255,91.1702128 3.48404255,92.712766 L3.48404255,99.0159574 L45.4255319,99.0159574 L45.4255319,92.712766 C45.4255319,90.0265957 45,86.2765957 41.3829787,84.787234 C41.3829787,84.787234 41.356383,84.787234 41.356383,84.787234 L28.2446809,79.0159574 C27.712766,78.7765957 27.4734043,78.1382979 27.712766,77.606383 C27.9521277,77.0744681 28.5638298,76.8351064 29.1223404,77.0744681 L42.2074468,82.8457447 C47.5531915,85.0265957 47.5531915,90.8244681 47.5531915,92.7393617 L47.5531915,100.106383 C47.5265957,100.664894 47.0478723,101.143617 46.462766,101.143617 Z" id="Shape"></path>
                    <path d="M28.643617,100.452128 C28.0585106,100.452128 27.5797872,99.9734043 27.5797872,99.3882979 L27.5797872,79.9202128 C27.5797872,79.3351064 28.0585106,78.856383 28.643617,78.856383 C29.2287234,78.856383 29.7074468,79.3351064 29.7074468,79.9202128 L29.7074468,99.3882979 C29.7074468,99.9734043 29.2287234,100.452128 28.643617,100.452128 Z" id="Shape"></path>
                    <path d="M20.4521277,100.452128 C20.1861702,100.452128 19.9468085,100.37234 19.7340426,100.18617 L12.7659574,94.0159574 C12.3404255,93.643617 12.287234,93.0053191 12.6329787,92.5531915 L15.1329787,89.4414894 L12.606383,87.287234 C12.1808511,86.9148936 12.1010638,86.2765957 12.4468085,85.8244681 L18.5904255,77.8723404 C18.962766,77.4202128 19.6276596,77.3138298 20.0797872,77.6861702 C20.4521277,77.9787234 20.5851064,78.4308511 20.4521277,78.856383 C21.037234,78.856383 21.5159574,79.3351064 21.5159574,79.9202128 L21.5159574,99.3882979 C21.5159574,99.8138298 21.2765957,100.18617 20.8776596,100.345745 C20.7446809,100.425532 20.6117021,100.452128 20.4521277,100.452128 Z M14.9468085,93.0851064 L19.3882979,97.0212766 L19.3882979,80.3457447 L14.7606383,86.3297872 L17.3138298,88.4840426 C17.7659574,88.856383 17.8191489,89.5212766 17.4468085,89.9734043 L14.9468085,93.0851064 Z" id="Shape"></path>
                    <path d="M28.6968085,100.930851 C28.537234,100.930851 28.4042553,100.904255 28.2712766,100.824468 C27.8989362,100.664894 27.6329787,100.265957 27.6329787,99.8670213 L27.6329787,80.3989362 C27.6329787,79.8138298 28.1117021,79.3085106 28.7234043,79.3351064 C28.5904255,78.9095745 28.7234043,78.4574468 29.0957447,78.1648936 C29.5478723,77.7925532 30.2393617,77.8989362 30.5851064,78.3510638 L36.7287234,86.3031915 C37.0744681,86.7553191 37.0212766,87.393617 36.5691489,87.7659574 L34.0425532,89.9202128 L36.5425532,93.0319149 C36.8882979,93.4840426 36.8351064,94.1223404 36.4095745,94.4946809 L29.4148936,100.664894 C29.2021277,100.851064 28.962766,100.930851 28.6968085,100.930851 Z M29.7606383,80.7978723 L29.7606383,97.5265957 L34.2287234,93.5904255 L31.7287234,90.4787234 C31.356383,90.0265957 31.4361702,89.3617021 31.8617021,88.9893617 L34.4148936,86.8351064 L29.7606383,80.7978723 Z" id="Shape"></path>
                    <path d="M13.537234,12.7393617 C13.3776596,12.7393617 13.2180851,12.712766 13.0851064,12.6329787 L2.04787234,7.42021277 C1.51595745,7.18085106 1.27659574,6.54255319 1.54255319,6.0106383 C1.78191489,5.4787234 2.42021277,5.2393617 2.95212766,5.50531915 L13.9893617,10.7180851 C14.5212766,10.9574468 14.7606383,11.5957447 14.4946809,12.1276596 C14.3351064,12.5 13.9361702,12.7393617 13.537234,12.7393617 Z" id="Shape"></path>
                    <path d="M38.0053191,12.9255319 C37.6329787,12.9255319 37.2606383,12.712766 37.0478723,12.3404255 C36.7819149,11.8085106 36.9946809,11.1702128 37.5,10.9042553 L48.3510638,5.31914894 C48.8829787,5.05319149 49.5212766,5.26595745 49.787234,5.7712766 C50.0531915,6.30319149 49.8404255,6.94148936 49.3351064,7.20744681 L38.4840426,12.7925532 C38.3510638,12.8723404 38.1914894,12.9255319 38.0053191,12.9255319 Z" id="Shape"></path>
                </g>
            </g>
        </g>
    </g>
</svg>