<?xml version="1.0" encoding="UTF-8"?>
<svg width="903px" height="587px" viewBox="0 0 903 587" version="1.1" xmlns="http://www.w3.org/2000/svg" xmlns:xlink="http://www.w3.org/1999/xlink">
    <!-- Generator: Sketch 47.1 (45422) - http://www.bohemiancoding.com/sketch -->
    <title>Data Hub Illustration</title>
    <desc>Created with Sketch.</desc>
    <defs>
        <radialGradient cx="50%" cy="50.6437341%" fx="50%" fy="50.6437341%" r="49.3562659%" id="radialGradient-1">
            <stop stop-color="#FFFFFF" offset="0%"></stop>
            <stop stop-color="#E1F4FF" offset="100%"></stop>
        </radialGradient>
        <circle id="path-2" cx="793.5" cy="242.5" r="25.5"></circle>
        <filter x="-99.0%" y="-95.1%" width="298.0%" height="298.0%" filterUnits="objectBoundingBox" id="filter-3">
            <feMorphology radius="1" operator="dilate" in="SourceAlpha" result="shadowSpreadOuter1"></feMorphology>
            <feOffset dx="0" dy="2" in="shadowSpreadOuter1" result="shadowOffsetOuter1"></feOffset>
            <feGaussianBlur stdDeviation="15.5" in="shadowOffsetOuter1" result="shadowBlurOuter1"></feGaussianBlur>
            <feColorMatrix values="0 0 0 0 0.988994565   0 0 0 0 0.988235294   0 0 0 0 0.992156863  0 0 0 0.5606601 0" type="matrix" in="shadowBlurOuter1"></feColorMatrix>
        </filter>
        <circle id="path-4" cx="229.5" cy="135.5" r="34.5"></circle>
        <filter x="-73.2%" y="-70.3%" width="246.4%" height="246.4%" filterUnits="objectBoundingBox" id="filter-5">
            <feMorphology radius="1" operator="dilate" in="SourceAlpha" result="shadowSpreadOuter1"></feMorphology>
            <feOffset dx="0" dy="2" in="shadowSpreadOuter1" result="shadowOffsetOuter1"></feOffset>
            <feGaussianBlur stdDeviation="15.5" in="shadowOffsetOuter1" result="shadowBlurOuter1"></feGaussianBlur>
            <feColorMatrix values="0 0 0 0 0.988994565   0 0 0 0 0.988235294   0 0 0 0 0.992156863  0 0 0 0.5606601 0" type="matrix" in="shadowBlurOuter1"></feColorMatrix>
        </filter>
        <circle id="path-6" cx="354" cy="482" r="32"></circle>
        <filter x="-78.9%" y="-75.8%" width="257.8%" height="257.8%" filterUnits="objectBoundingBox" id="filter-7">
            <feMorphology radius="1" operator="dilate" in="SourceAlpha" result="shadowSpreadOuter1"></feMorphology>
            <feOffset dx="0" dy="2" in="shadowSpreadOuter1" result="shadowOffsetOuter1"></feOffset>
            <feGaussianBlur stdDeviation="15.5" in="shadowOffsetOuter1" result="shadowBlurOuter1"></feGaussianBlur>
            <feColorMatrix values="0 0 0 0 0.988994565   0 0 0 0 0.988235294   0 0 0 0 0.992156863  0 0 0 0.5606601 0" type="matrix" in="shadowBlurOuter1"></feColorMatrix>
        </filter>
        <circle id="path-8" cx="135.5" cy="10.5" r="10.5"></circle>
        <filter x="-240.5%" y="-231.0%" width="581.0%" height="581.0%" filterUnits="objectBoundingBox" id="filter-9">
            <feMorphology radius="1" operator="dilate" in="SourceAlpha" result="shadowSpreadOuter1"></feMorphology>
            <feOffset dx="0" dy="2" in="shadowSpreadOuter1" result="shadowOffsetOuter1"></feOffset>
            <feGaussianBlur stdDeviation="15.5" in="shadowOffsetOuter1" result="shadowBlurOuter1"></feGaussianBlur>
            <feColorMatrix values="0 0 0 0 0.988994565   0 0 0 0 0.988235294   0 0 0 0 0.992156863  0 0 0 1 0" type="matrix" in="shadowBlurOuter1"></feColorMatrix>
        </filter>
        <circle id="path-10" cx="625" cy="113" r="5"></circle>
        <filter x="-505.0%" y="-485.0%" width="1110.0%" height="1110.0%" filterUnits="objectBoundingBox" id="filter-11">
            <feMorphology radius="1" operator="dilate" in="SourceAlpha" result="shadowSpreadOuter1"></feMorphology>
            <feOffset dx="0" dy="2" in="shadowSpreadOuter1" result="shadowOffsetOuter1"></feOffset>
            <feGaussianBlur stdDeviation="15.5" in="shadowOffsetOuter1" result="shadowBlurOuter1"></feGaussianBlur>
            <feColorMatrix values="0 0 0 0 0.988994565   0 0 0 0 0.988235294   0 0 0 0 0.992156863  0 0 0 1 0" type="matrix" in="shadowBlurOuter1"></feColorMatrix>
        </filter>
        <radialGradient cx="50%" cy="50.6437341%" fx="50%" fy="50.6437341%" r="49.3562659%" gradientTransform="translate(0.500000,0.506437),scale(0.950786,1.000000),rotate(90.000000),translate(-0.500000,-0.506437)" id="radialGradient-12">
            <stop stop-color="#FFFFFF" offset="0%"></stop>
            <stop stop-color="#E1F4FF" offset="100%"></stop>
        </radialGradient>
        <radialGradient cx="50%" cy="50.6437341%" fx="50%" fy="50.6437341%" r="49.3562659%" gradientTransform="translate(0.500000,0.506437),scale(0.946749,1.000000),rotate(90.000000),translate(-0.500000,-0.506437)" id="radialGradient-13">
            <stop stop-color="#FFFFFF" offset="0%"></stop>
            <stop stop-color="#E1F4FF" offset="100%"></stop>
        </radialGradient>
        <radialGradient cx="50%" cy="50.6437341%" fx="50%" fy="50.6437341%" r="49.0050983%" gradientTransform="translate(0.500000,0.506437),scale(0.950548,1.000000),rotate(90.000000),translate(-0.500000,-0.506437)" id="radialGradient-14">
            <stop stop-color="#FFFFFF" offset="0%"></stop>
            <stop stop-color="#DEEFFA" offset="100%"></stop>
        </radialGradient>
        <polygon id="path-15" points="0 12.9999893 0 0 25.5702479 0 25.5702479 12.9999893 25.5702479 25.9999785 0 25.9999785"></polygon>
        <polygon id="path-17" points="5.60066674 8.07692308 0.0490847529 8.07692308 0.0490847529 0.125432897 5.60066674 0.125432897"></polygon>
        <polygon id="path-19" points="0.120142475 0 4.75559398 0 4.75559398 4.84613182 0.120142475 4.84613182"></polygon>
        <polygon id="path-21" points="32 16 32 32 0 32 0 16 0 0 32 0"></polygon>
        <polygon id="path-23" points="32 15 32 0 0 0 0 15 0 30 32 30"></polygon>
        <polygon id="path-25" points="0 15.4545455 15 15.4545455 15 0 0 0"></polygon>
        <polygon id="path-27" points="0 30 29.0625 30 29.0625 0 0 0"></polygon>
    </defs>
    <g id="Wireframes-and-Visual" stroke="none" stroke-width="1" fill="none" fill-rule="evenodd">
        <g id="Elements" transform="translate(-269.000000, -959.000000)">
            <g id="Data-Hub-Illustration" transform="translate(269.000000, 988.000000)">
                <path d="M263.369792,148.37234 L374,190" id="Line" stroke="#C8E4F5" stroke-width="4" stroke-linecap="square"></path>
                <path d="M523,291 L616,391" id="Line" stroke="#C8E4F5" stroke-width="4" stroke-linecap="square"></path>
                <path d="M199.5,277.5 L376.5,245.5" id="Line-2" stroke="#C8E4F5" stroke-width="3" opacity="0.434046649" stroke-linecap="square"></path>
                <path d="M354.5,483.5 L422.5,315.5" id="Line-3" stroke="#C8E4F5" stroke-width="3" opacity="0.823992301" stroke-linecap="square"></path>
                <path d="M545.5,194.5 L698.5,121.5" id="Line-4" stroke="#C8E4F5" stroke-width="3" opacity="0.647588315" stroke-linecap="square" stroke-dasharray="4,2"></path>
                <path d="M538.5,209.5 L892.631894,115.366071" id="Line-4-Copy" stroke="#C8E4F5" opacity="0.207597373" stroke-linecap="square" stroke-dasharray="4,4"></path>
                <path d="M105.5,167.5 L400.63141,219.635294" id="Line-4-Copy-2" stroke="#C8E4F5" opacity="0.186537591" stroke-linecap="square" stroke-dasharray="4,4"></path>
                <path d="M551,238 L804.630137,241.5" id="Line-5" stroke="#C8E4F5" stroke-width="2" stroke-linecap="square"></path>
                <path d="M535.5,264.5 L849.5,425.5" id="Line-7" stroke="#E2F4FF" stroke-width="3" stroke-linecap="square"></path>
                <path d="M525.5,277.5 L824.5,526.5" id="Line-7-Copy" stroke="#DFF3FF" opacity="0.622509058" stroke-linecap="square" stroke-dasharray="2,2"></path>
                <path d="M239.368217,227.3125 L384.790514,227.3125" id="Line-7-Copy-2" stroke="#C8E4F5" opacity="0.315953351" stroke-linecap="square"></path>
                <path d="M392.37931,90.3645833 L441.5,190.5" id="Line-7-Copy-4" stroke="#C8E4F5" opacity="0.647588315" stroke-linecap="square" stroke-dasharray="4,2"></path>
                <path d="M442.5,272.5 L433.416667,539.631818" id="Line-7-Copy-3" stroke="#E2EEF6" stroke-linecap="square"></path>
                <path d="M475.5,278.5 L530.5,446.5" id="Line-7-Copy-5" stroke="#C8E4F5" opacity="0.629698822" stroke-linecap="square" stroke-dasharray="4,2"></path>
                <path d="M515.5,32.5 L481.5,174.5" id="Line-8" stroke="#C8E4F5" stroke-width="3" opacity="0.692764946" stroke-linecap="square"></path>
                <path d="M166.5,421.5 L384.630747,276.367257" id="Line-6" stroke="#C8E4F5" stroke-width="3" opacity="0.542459239" stroke-linecap="square"></path>
                <path d="M9.5,404.5 L432.5,236.5" id="Line-4-Copy" stroke="#C8E4F5" opacity="0.207597373" stroke-linecap="square" stroke-dasharray="4,4"></path>
                <circle id="Oval-Copy" fill="url(#radialGradient-1)" cx="649" cy="423" r="52"></circle>
                <g id="Oval-Copy-2">
                    <use fill="black" fill-opacity="1" filter="url(#filter-3)" xlink:href="#path-2"></use>
                    <use fill="url(#radialGradient-1)" fill-rule="evenodd" xlink:href="#path-2"></use>
                </g>
                <circle id="Oval-Copy-3" fill="url(#radialGradient-1)" opacity="0.86475317" cx="731" cy="104" r="37"></circle>
                <circle id="Oval-Copy-4" fill="url(#radialGradient-1)" opacity="0.756057518" cx="179.5" cy="281.5" r="19.5"></circle>
                <g id="Oval-Copy-5" opacity="0.831974638">
                    <use fill="black" fill-opacity="1" filter="url(#filter-5)" xlink:href="#path-4"></use>
                    <use fill="url(#radialGradient-1)" fill-rule="evenodd" xlink:href="#path-4"></use>
                </g>
                <g id="Oval-Copy-6">
                    <use fill="black" fill-opacity="1" filter="url(#filter-7)" xlink:href="#path-6"></use>
                    <use fill="url(#radialGradient-1)" fill-rule="evenodd" xlink:href="#path-6"></use>
                </g>
                <circle id="Path" fill="url(#radialGradient-1)" cx="857" cy="431" r="22"></circle>
                <circle id="Path-Copy" fill="url(#radialGradient-1)" cx="825" cy="526" r="10"></circle>
                <circle id="Path-Copy-2" fill="url(#radialGradient-1)" opacity="0.407099185" cx="233.5" cy="226.5" r="7.5"></circle>
                <circle id="Path-Copy-3" fill="url(#radialGradient-1)" cx="433" cy="549" r="9"></circle>
                <circle id="Path-Copy-4" fill="url(#radialGradient-1)" opacity="0.105978261" cx="100" cy="166" r="5"></circle>
                <g id="Path-Copy-8" opacity="0.407099185">
                    <use fill="black" fill-opacity="1" filter="url(#filter-9)" xlink:href="#path-8"></use>
                    <use fill="url(#radialGradient-1)" fill-rule="evenodd" xlink:href="#path-8"></use>
                </g>
                <circle id="Path-Copy-5" fill="url(#radialGradient-1)" opacity="0.301913496" cx="390" cy="85" r="5"></circle>
                <g id="Path-Copy-6" opacity="0.407099185">
                    <use fill="black" fill-opacity="1" filter="url(#filter-11)" xlink:href="#path-10"></use>
                    <use fill="url(#radialGradient-1)" fill-rule="evenodd" xlink:href="#path-10"></use>
                </g>
                <circle id="Path-Copy-7" fill="url(#radialGradient-1)" opacity="0.250339674" cx="898" cy="113" r="5"></circle>
                <circle id="Path-Copy-7" fill="url(#radialGradient-1)" opacity="0.36548913" cx="5" cy="407" r="5"></circle>
                <circle id="Path-Copy-9" fill="url(#radialGradient-1)" cx="532.5" cy="452.5" r="12.5"></circle>
                <circle id="Path" fill="url(#radialGradient-1)" opacity="0.936933877" cx="519" cy="21" r="17"></circle>
                <circle id="Path" fill="url(#radialGradient-1)" opacity="0.574615036" cx="146.5" cy="434.5" r="22.5"></circle>
                <g id="Core" transform="translate(317.000000, 85.000000)">
                    <path d="M242,177.47064 C280,127.47064 228,64.47064 162,48.47064 C96,32.47064 52,52.47064 47,105.47064 C42,158.47064 44.8474844,214.508938 99,235.47064 C153.152516,256.432342 204,227.47064 242,177.47064 Z" id="Data-Hub" fill="url(#radialGradient-12)" opacity="0.333333333" transform="translate(150.077178, 142.735320) scale(1, -1) translate(-150.077178, -142.735320) "></path>
                    <path d="M243.654916,174.918655 C263.392452,133.237195 237.861489,62.3203971 166.526528,45.8514237 C95.1915673,29.3824503 56.1786544,59.5561029 44.9536691,110.780666 C33.7286837,162.00523 26.7995143,214.027909 84.9359488,236.531732 C143.072383,259.035555 223.91738,216.600115 243.654916,174.918655 Z" id="Data-Hub" fill="url(#radialGradient-13)" opacity="0.298799819" transform="translate(143.719003, 142.057572) scale(1, -1) rotate(32.000000) translate(-143.719003, -142.057572) "></path>
                    <path d="M232.996665,176.195089 C259.696387,132.99873 223.996665,69.1950892 168.996665,59.1950892 C113.996665,49.1950892 64.6638055,62.0796584 54.9966648,106.195089 C45.3295241,150.31052 58.633898,214.479315 101.003101,231.66615 C143.372303,248.852985 206.296943,219.391448 232.996665,176.195089 Z" id="Data-Hub" fill="url(#radialGradient-14)"></path>
                    <g id="logo-Data-Hub_illustration" transform="translate(81.000000, 131.000000)">
                        <g id="Data_Hub_Logo" transform="translate(4.000000, 0.000000)">
                            <mask id="mask-16" fill="white">
                                <use xlink:href="#path-15"></use>
                            </mask>
                            <g id="Clip-2"></g>
                            <path d="M22.7768595,10.0991521 C21.6150248,10.0991521 20.6192893,10.8088876 20.1983471,11.8181603 L16.0028926,11.8181603 C15.764595,10.6945736 15.1603636,9.70657355 14.3206281,8.98394545 L15.8176694,6.6336314 C15.9145785,6.65060661 16.0138512,6.66113554 16.1157025,6.66113554 C17.0650248,6.66113554 17.8347107,5.89144959 17.8347107,4.94212727 C17.8347107,3.99280496 17.0650248,3.22311901 16.1157025,3.22311901 C15.1663802,3.22311901 14.3966942,3.99280496 14.3966942,4.94212727 C14.3966942,5.31880496 14.5191736,5.6662595 14.7248099,5.94946612 L13.2462479,8.2707719 C12.5567107,7.92868926 11.7803636,7.7355157 10.9586777,7.7355157 C10.5893058,7.7355157 10.2291736,7.77526777 9.88171901,7.84897025 L7.98844628,4.52849091 C8.36705785,4.05168099 8.59504132,3.44959835 8.59504132,2.79336694 C8.59504132,1.25055702 7.34446281,-2.14876033e-05 5.80165289,-2.14876033e-05 C4.25884298,-2.14876033e-05 3.00826446,1.25055702 3.00826446,2.79336694 C3.00826446,4.33617686 4.25884298,5.58675537 5.80165289,5.58675537 C5.90522314,5.58675537 6.00750413,5.58009421 6.10828099,5.56913554 L7.91195041,8.7325405 C6.79631405,9.55100331 6.02297521,10.8069537 5.84312397,12.2479124 L3.3118843,12.2479124 C3.05682645,11.6181107 2.44013223,11.1735322 1.71900826,11.1735322 C0.76968595,11.1735322 0,11.9432182 0,12.8925405 C0,13.8418628 0.76968595,14.6115488 1.71900826,14.6115488 C2.44013223,14.6115488 3.05682645,14.1669702 3.3118843,13.5371686 L5.84312397,13.5371686 C6.00127273,14.8042926 6.61818182,15.928524 7.52366942,16.737962 L5.31710744,20.4411355 C5.19419835,20.424805 5.06957025,20.4132017 4.94214876,20.4132017 C3.39933884,20.4132017 2.14876033,21.663995 2.14876033,23.2065901 C2.14876033,24.7494 3.39933884,25.9999785 4.94214876,25.9999785 C6.48495868,25.9999785 7.73553719,24.7494 7.73553719,23.2065901 C7.73553719,22.575714 7.5238843,21.9955488 7.17105785,21.5279785 L9.38900826,17.8054661 C9.88408264,17.9636149 10.4111736,18.0495653 10.9586777,18.0495653 C11.7578017,18.0495653 12.5143802,17.8677802 13.1897355,17.5433174 L14.9203471,20.2915818 C14.7260992,20.5698463 14.6115702,20.9076314 14.6115702,21.2727058 C14.6115702,22.2220281 15.3812562,22.991714 16.3305785,22.991714 C17.2799008,22.991714 18.0495868,22.2220281 18.0495868,21.2727058 C18.0495868,20.3233835 17.2799008,19.5536975 16.3305785,19.5536975 C16.2173388,19.5536975 16.1068926,19.5653008 15.9998843,19.5863587 L14.2724959,16.8430364 C15.137157,16.1167554 15.7600826,15.1124248 16.0028926,13.9669207 L20.1983471,13.9669207 C20.6192893,14.9764083 21.6150248,15.6859289 22.7768595,15.6859289 C24.3196694,15.6859289 25.5702479,14.4353504 25.5702479,12.8925405 C25.5702479,11.3497306 24.3196694,10.0991521 22.7768595,10.0991521" id="Fill-1" fill="#BAD9F2" mask="url(#mask-16)"></path>
                        </g>
                        <path d="M40,20.21875 L40,6 L43.7597656,6 C45.4199302,6 46.7431591,6.52733848 47.7294922,7.58203125 C48.7158252,8.63672402 49.2187499,10.0820221 49.2382812,11.9179688 L49.2382812,14.2226562 C49.2382812,16.0911552 48.7451221,17.5576119 47.7587891,18.6220703 C46.772456,19.6865288 45.4134201,20.21875 43.6816406,20.21875 L40,20.21875 Z M42.8710938,8.39257812 L42.8710938,17.8359375 L43.7304688,17.8359375 C44.6875048,17.8359375 45.3613262,17.5836614 45.7519531,17.0791016 C46.1425801,16.5745417 46.3476562,15.7037822 46.3671875,14.4667969 L46.3671875,11.9960938 C46.3671875,10.6679621 46.1816425,9.7418646 45.8105469,9.21777344 C45.4394513,8.69368228 44.8079472,8.41861992 43.9160156,8.39257812 L42.8710938,8.39257812 Z M57.8808594,17.3085938 L53.9648438,17.3085938 L53.203125,20.21875 L50.1660156,20.21875 L54.609375,6 L57.2363281,6 L61.7089844,20.21875 L58.6425781,20.21875 L57.8808594,17.3085938 Z M54.5898438,14.9160156 L57.2460938,14.9160156 L55.9179688,9.84765625 L54.5898438,14.9160156 Z M71.0742188,8.39257812 L67.5585938,8.39257812 L67.5585938,20.21875 L64.6777344,20.21875 L64.6777344,8.39257812 L61.2207031,8.39257812 L61.2207031,6 L71.0742188,6 L71.0742188,8.39257812 Z M78.3398438,17.3085938 L74.4238281,17.3085938 L73.6621094,20.21875 L70.625,20.21875 L75.0683594,6 L77.6953125,6 L82.1679688,20.21875 L79.1015625,20.21875 L78.3398438,17.3085938 Z M75.0488281,14.9160156 L77.7050781,14.9160156 L76.3769531,9.84765625 L75.0488281,14.9160156 Z M98.0761719,20.21875 L95.2148438,20.21875 L95.2148438,14.1347656 L90.9765625,14.1347656 L90.9765625,20.21875 L88.1054688,20.21875 L88.1054688,6 L90.9765625,6 L90.9765625,11.7519531 L95.2148438,11.7519531 L95.2148438,6 L98.0761719,6 L98.0761719,20.21875 Z M109.628906,6 L109.628906,15.84375 C109.615885,17.321622 109.208988,18.4527956 108.408203,19.2373047 C107.607418,20.0218138 106.458341,20.4140625 104.960938,20.4140625 C103.437492,20.4140625 102.273767,20.0169311 101.469727,19.2226562 C100.665686,18.4283814 100.263672,17.2793044 100.263672,15.7753906 L100.263672,6 L103.154297,6 L103.154297,15.7851562 C103.154297,16.592452 103.284504,17.1686181 103.544922,17.5136719 C103.80534,17.8587257 104.27734,18.03125 104.960938,18.03125 C105.644535,18.03125 106.11328,17.8603533 106.367188,17.5185547 C106.621095,17.1767561 106.751302,16.6152383 106.757812,15.8339844 L106.757812,6 L109.628906,6 Z M111.806641,20.21875 L111.806641,6 L116.201172,6 C117.685554,6 118.813473,6.33040034 119.584961,6.99121094 C120.356449,7.65202153 120.742188,8.62043633 120.742188,9.89648438 C120.742188,10.6191442 120.582684,11.2408828 120.263672,11.7617188 C119.94466,12.2825547 119.508466,12.6634103 118.955078,12.9042969 C119.593102,13.0865895 120.084634,13.4527967 120.429688,14.0029297 C120.774741,14.5530626 120.947266,15.2317668 120.947266,16.0390625 C120.947266,17.4192777 120.568038,18.460934 119.80957,19.1640625 C119.051103,19.867191 117.952481,20.21875 116.513672,20.21875 L111.806641,20.21875 Z M114.677734,14.0371094 L114.677734,17.8359375 L116.513672,17.8359375 C117.027997,17.8359375 117.418618,17.6764339 117.685547,17.3574219 C117.952475,17.0384099 118.085938,16.5859404 118.085938,16 C118.085938,14.723952 117.623703,14.0696616 116.699219,14.0371094 L114.677734,14.0371094 Z M114.677734,11.9472656 L116.171875,11.9472656 C117.298183,11.9472656 117.861328,11.3645892 117.861328,10.1992188 C117.861328,9.55468428 117.731121,9.09244932 117.470703,8.8125 C117.210285,8.53255068 116.787112,8.39257812 116.201172,8.39257812 L114.677734,8.39257812 L114.677734,11.9472656 Z" id="Data-Hub" fill="#BAD9F2"></path>
                    </g>
                </g>
                <g id="Partners" transform="translate(136.000000, 10.000000)">
                    <g id="Jira" opacity="0.324633152" transform="translate(82.500000, 111.000000)">
                        <path d="M0.00168119414,7.89206858 C0.00168119414,7.89206858 -0.184931355,12.0408814 5.6773926,18.0806497 C11.5397166,24.120418 12.2071506,26.5740738 11.8860425,28.2692308 L16.1495509,28.2692308 C16.1495509,28.2692308 16.5379067,21.2612298 9.92913257,16.33963 C9.92913257,16.33963 5.37982124,12.0937999 4.63841462,8.72288951 C4.63841462,8.72288951 2.39906403,8.72288951 0.840597068,7.40698205 C0.840597068,7.40698205 0,6.87779674 0,7.89383253" id="Fill-1" fill="#559FDF"></path>
                        <path d="M10.0213477,18.0587986 C11.1464181,18.9000756 12.1673219,19.8883192 13.0601288,21 C13.651345,20.3294061 14.3147037,19.6106325 15.0572432,18.8354625 C21.1928712,12.4434382 20.9993183,7.91286756 20.9993183,7.91286756 C20.9993183,6.83909562 20.1195322,7.43312493 20.1195322,7.43312493 C18.4884088,8.82622731 16.1446587,8.85984104 16.1446587,8.85984104 C15.3686874,12.4284988 10.6072852,16.9904422 10.6072852,16.9904422 C10.2852835,17.233208 9.98439667,17.4815761 9.69230769,17.737414 C9.89817763,17.9448854 10.0195881,18.0587986 10.0195881,18.0587986" id="Fill-3" fill="#559FDF"></path>
                        <g id="Group-7" transform="translate(4.038462, 19.384615)">
                            <mask id="mask-18" fill="white">
                                <use xlink:href="#path-17"></use>
                            </mask>
                            <g id="Clip-6"></g>
                            <path d="M5.59567805,3.69130851 C4.63735113,2.44299427 3.61084548,1.25259329 2.52098348,0.125432897 C-0.162930543,4.12454092 0.0532459276,8.07707774 0.0532459276,8.07707774 L4.27035,8.07707774 C4.08244276,7.06127578 4.23875498,5.77412357 5.60066674,3.69130851" id="Fill-5" fill="#559FDF" mask="url(#mask-18)"></path>
                        </g>
                        <path d="M8.44336258,7.27224775 L13.234029,7.27224775 C13.234029,7.27224775 13.859313,7.17362699 13.7068047,8.10409242 C13.489671,9.42904088 10.904465,12.1153846 10.904465,12.1153846 C10.904465,12.1153846 9.01336228,10.1408255 8.17075402,8.28632643 C8.17075402,8.28632643 7.8314231,7.27224775 8.44336258,7.27224775" id="Fill-8" fill="#559FDF"></path>
                        <path d="M19.3846154,4.03846154 C19.3846154,5.37666084 18.2997378,6.46153846 16.9615385,6.46153846 C15.6233392,6.46153846 14.5384615,5.37666084 14.5384615,4.03846154 C14.5384615,2.70026224 15.6233392,1.61538462 16.9615385,1.61538462 C18.2997378,1.61538462 19.3846154,2.70026224 19.3846154,4.03846154" id="Fill-10" fill="#559FDF"></path>
                        <path d="M8.07692308,4.03846154 C8.07692308,5.37666084 6.99204545,6.46153846 5.65384615,6.46153846 C4.31564685,6.46153846 3.23076923,5.37666084 3.23076923,4.03846154 C3.23076923,2.70026224 4.31564685,1.61538462 5.65384615,1.61538462 C6.99204545,1.61538462 8.07692308,2.70026224 8.07692308,4.03846154" id="Fill-12" fill="#559FDF"></path>
                        <g id="Group-16" transform="translate(8.884615, 0.000000)">
                            <mask id="mask-20" fill="white">
                                <use xlink:href="#path-19"></use>
                            </mask>
                            <g id="Clip-15"></g>
                            <path d="M4.75559398,2.4230549 C4.75559398,3.7612542 3.71788495,4.84613182 2.43786823,4.84613182 C1.15785151,4.84613182 0.120142475,3.7612542 0.120142475,2.4230549 C0.120142475,1.08485559 1.15785151,-2.2027972e-05 2.43786823,-2.2027972e-05 C3.71788495,-2.2027972e-05 4.75559398,1.08485559 4.75559398,2.4230549" id="Fill-14" fill="#559FDF" mask="url(#mask-20)"></path>
                        </g>
                    </g>
                    <g id="ctc" opacity="0.277445652" transform="translate(501.000000, 399.000000)">
                        <mask id="mask-22" fill="white">
                            <use xlink:href="#path-21"></use>
                        </mask>
                        <g id="Clip-2"></g>
                        <path d="M6.875,7.07000182 L4.9025,7.07000182 C4.2405,7.03975182 3.67925,7.55200178 3.649,8.21400173 C3.61875,8.87600168 4.13075,9.43725164 4.793,9.46750164 C4.8295,9.46925164 4.866,9.46925164 4.9025,9.46750164 L6.875,9.46750164 C7.537,9.49775164 8.09825,8.98550168 8.1285,8.32350172 C8.15875,7.66150177 7.6465,7.10025181 6.9845,7.07000182 C6.948,7.06825182 6.9115,7.06825182 6.875,7.07000182 L6.875,7.07000182 Z M20.525,7.07000182 L11.1,7.07000182 C10.438,7.03975182 9.87675,7.55200178 9.8465,8.21400173 C9.81625,8.87600168 10.32825,9.43725164 10.9905,9.46750164 C11.027,9.46925164 11.0635,9.46925164 11.1,9.46750164 L12.8225,9.46750164 C11.83275,10.1470016 10.93575,10.9530015 10.155,11.8650015 L2.885,11.8650015 C2.223,11.8347515 1.66175,12.3467514 1.6315,13.0090014 C1.60125,13.6710013 2.1135,14.2322513 2.7755,14.2625013 C2.812,14.2640013 2.8485,14.2640013 2.885,14.2625013 L8.5,14.2625013 C8.09025,15.0275012 7.75525,15.8305012 7.5,16.6600011 L6.09,16.6600011 C5.428,16.6297511 4.86675,17.1420011 4.8365,17.804001 C4.80625,18.465751 5.31825,19.0272509 5.9805,19.0575009 C6.017,19.0592509 6.0535,19.0592509 6.09,19.0575009 L6.985,19.0575009 C6.915,19.6055009 6.87825,20.1575009 6.875,20.7100008 C6.875,20.9600008 6.9,21.2100008 6.9125,21.4600008 L4.085,21.4600008 C3.423,21.4297508 2.86175,21.9420007 2.8315,22.6040007 C2.80125,23.2660006 3.31325,23.8272506 3.9755,23.8575006 C4.012,23.8592506 4.0485,23.8592506 4.085,23.8575006 L7.25,23.8575006 C7.823,26.2715004 9.0465,28.4822503 10.7875,30.2500001 L1.6175,30.2500001 C0.724,30.2500001 0,29.5257502 0,28.6325002 L0,28.6300002 L0,1.61500221 C0.00125,0.722502277 0.725,2.32980731e-06 1.6175,2.32980731e-06 L20.795,2.32980731e-06 C21.68825,-0.00149767008 22.4135,0.721502277 22.415,1.61500221 L22.415,7.2350018 C21.879,7.15925181 21.33875,7.11500181 20.7975,7.10250181 C20.70825,7.08175181 20.61675,7.07075182 20.525,7.07000182 L20.525,7.07000182 Z M24.1475,22.7100007 L24.1475,22.7300007 C24.1475,22.7300007 24.155,22.7100007 24.155,22.7050007 L24.1475,22.7100007 Z M21.42,21.5397508 L21.42,23.9100006 C22.17,23.8775006 22.5375,23.4900006 22.54,22.7250007 C22.5425,21.9600007 22.1575,21.5625008 21.42,21.5300008 L21.42,21.5397508 Z M19.7675,17.5397511 C19.7675,17.5262511 19.75625,17.5150011 19.7425,17.5150011 L19.7175,17.5150011 C19.05625,17.5150011 18.52,18.051001 18.52,18.712501 C18.52,19.3737509 19.05625,19.9100009 19.7175,19.9100009 L19.7425,19.9100009 C19.75625,19.9100009 19.7675,19.8987509 19.7675,19.8850009 L19.7675,17.5397511 Z M21.42,25.5175005 L21.42,26.3175004 L21.3975,26.3175004 C21.351,26.7692504 20.94725,27.0980004 20.49525,27.0515004 C20.0885,27.0100004 19.7745,26.6757504 19.7575,26.2675004 L19.7575,25.5175005 L19.0375,25.5175005 L18.995,25.5175005 L18.535,25.5175005 C18.08625,25.5175005 17.7225,25.1535005 17.7225,24.7050005 C17.7225,24.2562506 18.08625,23.8925006 18.535,23.8925006 L19,23.8925006 L19.0275,23.8925006 L19.7775,23.8925006 L19.7775,21.5225008 C19.7775,21.5085008 19.76625,21.4972508 19.7525,21.4972508 L19.7275,21.4972508 C18.17775,21.5437508 16.88375,20.3247509 16.8375,18.775001 C16.79125,17.2252511 18.01025,15.9312512 19.56,15.8850012 C19.61575,15.8832512 19.67175,15.8832512 19.7275,15.8850012 L19.7525,15.8850012 C19.76625,15.8850012 19.7775,15.8737512 19.7775,15.8600012 L19.7775,15.1100012 C19.8025,14.6577513 20.18925,14.3115013 20.6415,14.3365013 C21.05875,14.3595013 21.39175,14.6927513 21.415,15.1100012 L21.415,15.1375012 L21.415,15.8875012 L22.0025,15.8875012 L22.0325,15.8875012 L22.5,15.8875012 C22.948,15.8625012 23.3315,16.2055011 23.35625,16.6535011 C23.381,17.1015011 23.038,17.4852511 22.59,17.5100011 C22.56,17.5115011 22.53,17.5115011 22.5,17.5100011 L22.04,17.5100011 L22.0025,17.5100011 L21.4175,17.5100011 L21.4175,19.9100009 C23.235,19.9400009 24.1475,20.8700008 24.1525,22.7125007 C24.1575,24.5550005 23.235,25.4850005 21.42,25.5175005 L21.42,25.5175005 Z M20.525,11.8175015 C15.525,11.8175015 11.4525,15.8175012 11.4525,20.7100008 C11.4525,25.6022505 15.5225,29.6022502 20.525,29.6022502 C25.5275,29.6022502 29.5975,25.6022505 29.5975,20.7100008 C29.5975,15.8175012 25.5275,11.8175015 20.525,11.8175015 L20.525,11.8175015 Z M20.525,32 C14.1975,32 9.05,26.9347504 9.05,20.7100008 C9.05,14.4850013 14.1975,9.42000164 20.525,9.42000164 C26.8525,9.42000164 32,14.4850013 32,20.7100008 C32,26.9347504 26.8525,32 20.525,32 L20.525,32 Z" id="Fill-1" fill="#559FDF" mask="url(#mask-22)"></path>
                    </g>
                    <path d="M649.685607,226.343166 C649.899486,226.574868 650.20248,226.699631 650.523298,226.699631 C650.844116,226.699631 651.129288,226.574868 651.36099,226.343166 C651.824393,225.879763 651.842216,225.131187 651.378813,224.667784 L651.36099,224.649961 L649.632137,222.921108 C649.168734,222.457705 648.402335,222.457705 647.938931,222.921108 C647.475528,223.384512 647.475528,224.15091 647.938931,224.614314 L649.685607,226.343166 Z M649.685607,238.659011 L647.956755,240.387863 C647.457705,240.81562 647.404235,241.582019 647.849815,242.063246 C648.277573,242.562296 649.043971,242.615766 649.525198,242.170185 C649.560844,242.134539 649.596491,242.098892 649.632137,242.063246 L651.36099,240.334394 C651.824393,239.87099 651.842216,239.122415 651.378813,238.659011 L651.36099,238.641188 C650.915409,238.177784 650.20248,238.159961 649.739077,238.605541 C649.70343,238.623364 649.70343,238.641188 649.685607,238.659011 L649.685607,238.659011 Z M665.334394,238.659011 C664.87099,238.195607 664.104591,238.195607 663.641188,238.659011 C663.177784,239.122415 663.177784,239.888813 663.641188,240.352217 L665.37004,242.081069 C665.86909,242.508826 666.617665,242.455357 667.045423,241.97413 C667.437533,241.510726 667.437533,240.833444 667.027599,240.387863 L665.334394,238.659011 Z M664.496702,226.699631 C664.81752,226.699631 665.102692,226.574868 665.334394,226.343166 L667.063246,224.614314 C667.526649,224.15091 667.526649,223.384512 667.063246,222.921108 C666.599842,222.457705 665.833444,222.457705 665.37004,222.921108 L663.641188,224.649961 C663.177784,225.113364 663.159961,225.861939 663.623364,226.325343 L663.641188,226.343166 C663.87289,226.557045 664.175884,226.699631 664.496702,226.699631 L664.496702,226.699631 Z M648.794446,232.492177 C648.794446,231.832718 648.259749,231.298021 647.60029,231.298021 L645.194156,231.298021 C644.534697,231.298021 644,231.832718 644,232.492177 C644,233.151636 644.534697,233.686333 645.194156,233.686333 L647.60029,233.686333 C648.241926,233.686333 648.776623,233.169459 648.794446,232.527823 L648.794446,232.492177 Z M657.51,241.207731 C656.850541,241.207731 656.315845,241.742428 656.315845,242.401887 L656.315845,244.808022 C656.315845,245.467481 656.850541,246.002177 657.51,246.002177 C658.169459,246.002177 658.704156,245.467481 658.704156,244.808022 L658.704156,242.401887 C658.704156,241.760251 658.187283,241.225554 657.545647,241.207731 L657.51,241.207731 Z M669.825845,231.315845 L667.41971,231.315845 C666.760251,231.315845 666.225554,231.850541 666.225554,232.51 C666.225554,233.169459 666.760251,233.704156 667.41971,233.704156 L669.825845,233.704156 C670.485304,233.704156 671.02,233.169459 671.02,232.51 C671.02,231.850541 670.485304,231.315845 669.825845,231.315845 L669.825845,231.315845 Z M657.51,223.776623 C658.169459,223.776623 658.704156,223.241926 658.704156,222.582467 L658.704156,220.194156 C658.704156,219.534697 658.169459,219 657.51,219 C656.850541,219 656.315845,219.534697 656.315845,220.194156 L656.315845,222.60029 C656.315845,223.241926 656.832718,223.776623 657.474354,223.794446 C657.492177,223.776623 657.492177,223.776623 657.51,223.776623 L657.51,223.776623 Z M657.51,236.66281 C655.210805,236.66281 653.339367,234.791372 653.339367,232.492177 C653.339367,230.192982 655.210805,228.339367 657.51,228.339367 C659.809196,228.339367 661.680634,230.210805 661.680634,232.51 C661.66281,234.791372 659.809196,236.66281 657.51,236.66281 L657.51,236.66281 Z M657.51,225.951056 C653.891887,225.951056 650.968879,228.874063 650.968879,232.492177 C650.968879,236.110291 653.891887,239.033298 657.51,239.033298 C661.128114,239.033298 664.051122,236.110291 664.051122,232.492177 C664.033298,228.891887 661.110291,225.968879 657.51,225.951056 L657.51,225.951056 Z" id="vts" fill="#559FDF" opacity="0.371648551"></path>
                    <g id="upsa" opacity="0.380819746" transform="translate(203.000000, 458.000000)">
                        <mask id="mask-24" fill="white">
                            <use xlink:href="#path-23"></use>
                        </mask>
                        <g id="Clip-2" opacity="0.564764493"></g>
                        <path d="M28.3439792,23.097035 C28.3361722,24.3033827 27.3839603,25.2742322 26.2174119,25.2661621 L26.2148096,25.2661621 L3.77809321,25.2661621 C2.61130826,25.2756994 1.65814999,24.3055836 1.64892359,23.099725 L1.64892359,23.097035 L1.64892359,5.90786406 C1.6553111,4.70322818 2.6053939,3.73188962 3.7707594,3.73873692 L3.77809321,3.73873692 L26.2148096,3.73873692 C27.3801751,3.72797688 28.3333333,4.69589178 28.3439792,5.90052766 L28.3439792,5.90786406 L28.3439792,23.097035 Z M25.933286,2.00001157 L4.06434824,2.00001157 C1.82493494,1.99463154 0.00520463686,3.86687927 0,6.1817561 L0,6.18200064 L0,22.8109156 C0.00118287201,25.126037 1.81783771,27.0014638 4.05725101,26.9999966 L4.05961675,26.9999966 L25.9403833,26.9999966 C28.1781405,27.0029311 29.9947954,25.1311725 30,22.818252 L30,6.18909249 C29.9973977,3.87421566 28.1800331,1.99976702 25.9403833,2.00245703 L25.933286,2.00001157 Z M24.3647977,17.5115938 L18.3416134,17.5115938 C18.8384197,18.1183135 18.9945588,19.2505637 18.8881003,19.2579001 L24.3695292,19.2579001 C24.7402413,19.2395591 25.0264963,18.9140677 25.0085167,18.5308634 C25.0085167,18.5286625 25.0082801,18.5264616 25.0082801,18.5242607 L25.0082801,18.2330058 C25.0295718,17.8502906 24.7466288,17.5218647 24.3761533,17.4998555 C24.3740241,17.499611 24.3716584,17.4993664 24.3695292,17.4993664 L24.3647977,17.5115938 Z M24.3222143,13.2224933 L17.2249823,13.2224933 C16.829903,14.1710891 15.9474805,14.9634196 15.841022,14.934074 L24.3222143,14.934074 C24.7012065,14.931384 25.0061509,14.6117618 25.0035486,14.2202429 L25.0035486,14.2175529 L25.0035486,13.9387699 C25.0061509,13.547251 24.7012065,13.2276288 24.3222143,13.2246943 L24.3222143,13.2224933 Z M24.3647977,8.90355824 L16.6737639,8.90355824 C17.1066951,9.31195083 17.5940383,10.2754639 17.5065058,10.6153835 L24.3671635,10.6153835 C24.7352732,10.602178 25.0234209,10.2830448 25.0106458,9.902286 L25.0106458,9.90155236 L25.0106458,9.62497031 C25.0267329,9.2449451 24.7418973,8.9233665 24.3742607,8.9060037 L24.3647977,8.90355824 Z M13.8017507,16.7901817 L13.0707357,16.7901817 C12.6926899,16.7901817 12.3858529,16.4742277 12.38467,16.0834424 C12.38467,15.9386709 12.441921,15.7997685 12.5431748,15.6995045 C12.9858055,15.2351107 13.3383014,14.6870821 13.5817365,14.0854978 C13.6302342,14.1280489 13.6910338,14.1529926 13.7544358,14.1564163 C14.1637095,14.1564163 14.6463213,13.2224933 14.6463213,12.5866725 C14.6463213,11.9506072 14.5895434,11.4348587 14.1731725,11.4348587 C14.1220724,11.4360814 14.0712089,11.4434178 14.0217648,11.4566233 C13.9933759,9.74479807 13.5699077,7.57836095 11.0149042,7.57836095 C8.34634493,7.57836095 8.0387982,9.72523436 8.00804353,11.4495315 C7.97161107,11.4404833 7.93446889,11.4348587 7.89685356,11.4321687 C7.4852141,11.4321687 7.42370476,11.9481617 7.42370476,12.5839825 C7.42370476,13.2198033 7.89685356,14.1539708 8.31559025,14.1539708 C8.37047551,14.1564163 8.42488763,14.141988 8.47172936,14.1123979 C8.71469127,14.7039558 9.06387509,15.2426917 9.50082801,15.6995045 C9.59616749,15.7973231 9.6515259,15.9298672 9.65460137,16.0690142 C9.65460137,16.4590658 9.3484741,16.7755089 8.97090135,16.7755089 L8.9685356,16.7755089 L8.23515496,16.7755089 C6.67636622,16.7730634 5.41069316,18.0769852 5.40809084,19.6883018 L5.40809084,20.4950606 C5.55807902,21.1509342 6.05346581,21.6632591 6.68795836,21.8183015 L15.8055358,21.8183015 C16.2786846,21.8183015 16.616986,21.0037173 16.616986,20.4950606 L16.616986,19.6883018 C16.6158032,18.0784525 15.3520227,16.7742862 13.7946534,16.7755089 L13.8017507,16.7901817 Z" id="Fill-1" fill="#559FDF" mask="url(#mask-24)"></path>
                    </g>
                    <g id="Consur-logo" opacity="0.257518116" transform="translate(714.000000, 413.000000)">
                        <mask id="mask-26" fill="white">
                            <use xlink:href="#path-25"></use>
                        </mask>
                        <g id="Clip-2"></g>
                        <path d="M11.3403263,10.8426268 C10.6060606,10.8426268 10.011655,10.2170906 10.011655,9.44449214 C10.011655,8.67164835 10.6060606,8.04611219 11.3519814,8.04611219 C12.0862471,8.04611219 12.6806527,8.67164835 12.6806527,9.44449214 C12.6689977,10.2170906 12.0745921,10.8426268 11.3403263,10.8426268 L11.3403263,10.8426268 Z M7.16783217,10.6954418 C7.7039627,10.6954418 8.26340326,10.4870524 8.44988345,10.4133373 C8.53146853,10.376541 8.57808858,10.4623989 8.57808858,10.4623989 C8.95104895,11.2964471 9.44055944,11.676675 9.55710956,11.8483908 C9.61538462,11.9342487 9.4988345,11.9955758 9.4988345,11.9955758 C8.9044289,12.3758037 7.94871795,12.5843157 7.15617716,12.5965811 C4.40559441,12.6088465 2.27272727,10.3520102 2.27272727,7.69041516 C2.27272727,4.78351182 4.44055944,2.66159504 7.06293706,2.75971836 C8.13519814,2.75971836 9.13752914,3.16447705 9.83682984,3.63056282 C10.011655,3.75321697 10.011655,3.81454404 9.97668998,3.87587112 C9.82517483,4.108914 9.40559441,4.75898099 9.1958042,5.21280134 C9.1958042,5.21280134 9.13752914,5.33545549 9.02097902,5.24959759 C8.57808858,4.94296221 7.96037296,4.63632684 6.96969697,4.63632684 C5.41958042,4.63632684 4.24242424,5.91192999 4.24242424,7.65361891 C4.24242424,9.39530783 5.61771562,10.6954418 7.16783217,10.6954418 L7.16783217,10.6954418 Z M15,0.858579044 C15,0.380227863 14.6386946,0 14.1841492,0 L0.815850816,0 C0.361305361,0 0,0.380227863 0,0.858579044 L0,14.5959664 C0,15.0741949 0.361305361,15.4545455 0.815850816,15.4545455 L14.1841492,15.4545455 C14.6270396,15.4545455 15,15.0741949 15,14.5959664 L15,0.858579044 Z" id="Fill-1" fill="#559FDF" mask="url(#mask-26)"></path>
                    </g>
                    <g id="Time-logo" opacity="0.45" transform="translate(581.000000, 80.000000)">
                        <mask id="mask-28" fill="white">
                            <use xlink:href="#path-27"></use>
                        </mask>
                        <g id="Clip-2"></g>
                        <path d="M25.4251885,14.0364312 C25.2423679,11.7510158 24.3846573,9.57921404 22.9693893,7.81304058 L25.5416116,5.15767719 C27.6290409,7.63745609 28.8660361,10.757602 29.0625,14.0364312 L25.424279,14.0364312 L25.4251885,14.0364312 Z M3.63952098,14.9753857 C3.63406365,21.1950204 8.51291805,26.240962 14.5369025,26.2475347 C19.8678059,26.2531684 24.4210395,22.2795129 25.3051272,16.8532947 L28.9815496,16.8532947 C27.9801292,25.0822922 20.7064158,30.9150776 12.7350736,29.8812887 C4.76373128,28.8465608 -0.886425985,21.3377415 0.114994354,13.109683 C0.943599194,6.30038485 6.13897883,0.937076613 12.7350736,0.0816890434 L12.7350736,3.87694322 C7.48603017,4.79054597 3.64224965,9.48062381 3.63952098,14.9753857 L3.63952098,14.9753857 Z M20.0115156,9.34165854 L15.4637393,17.7922492 L15.1790485,17.4992954 C14.84888,17.6889642 14.4768719,17.7894324 14.0994064,17.7922492 C12.8433106,17.7922492 11.8255183,16.7415591 11.8255183,15.4448629 C11.828247,15.0542579 11.9255694,14.6711644 12.1102091,14.3303239 L11.8255183,14.0364312 L20.0115156,9.34165854 Z M20.9774633,5.88255008 C19.3648218,4.66284816 17.4565749,3.92670781 15.4637393,3.75581809 L15.4637393,0 C18.4170653,0.191546723 21.2421439,1.31265842 23.5587811,3.21404133 L20.9774633,5.88255008 Z" id="Fill-1" fill="#559FDF" opacity="0.82665308" mask="url(#mask-28)"></path>
                    </g>
                    <g id="Heroes-logo" transform="translate(376.000000, 0.000000)" fill-rule="nonzero" fill="#559FDF" opacity="0.369565217">
                        <path d="M5.06170416,8.12903226 L2.58600382,15.3629032 C1.09077886,14.1290323 0.147071307,12.2903226 0.122559423,10.2459677 C0.0735356537,6.49596774 3.14977716,3.41129032 6.93686333,3.38709677 C7.59868421,3.38709677 8.23599321,3.47177419 8.83653438,3.64112903 L11.250955,0 L8.13794567,9.09677419 C8.11343379,9.15725806 8.05215407,9.20564516 7.99087436,9.20564516 L6.67948854,9.20564516 C6.64272071,9.20564516 6.61820883,9.19354839 6.59369694,9.16935484 C6.56918506,9.14516129 6.55692912,9.10887097 6.56918506,9.07258065 L7.46386885,6.43548387 L7.46386885,6.43548387 C6.37308998,6.4233871 5.40487054,7.11290323 5.06170416,8.12903226 Z" id="Shape"></path>
                        <path d="M13.8492148,10.233871 C13.800191,13.9717742 10.6626698,16.983871 6.87558362,16.9354839 C6.2627865,16.9233871 5.67450127,16.8387097 5.12298387,16.6814516 L2.72081919,20.3225806 L5.98089983,10.8266129 C6.00541171,10.766129 6.05443548,10.7177419 6.12797114,10.7177419 L7.43935696,10.7177419 C7.47612479,10.7177419 7.50063667,10.7419355 7.52514856,10.766129 C7.54966044,10.8024194 7.54966044,10.8266129 7.5374045,10.8629032 L6.49564941,13.8991935 L6.49564941,13.8991935 C7.58642827,13.8991935 8.55464771,13.2096774 8.91007003,12.1935484 L11.3857704,4.95967742 C12.9055072,6.21774194 13.8737267,8.11693548 13.8492148,10.233871 Z" id="Shape"></path>
                    </g>
                    <g id="learn-logo-_ic_material_product_icon_192px" opacity="0.51640625" transform="translate(35.000000, 264.000000)" fill-rule="nonzero" fill="#559FDF">
                        <path d="M17.5562212,11.8929227 L10.8272979,11.8929227 L10.8272979,12.2971963 C10.8293563,12.4025748 10.7899505,12.5044475 10.7177872,12.5803055 C10.6456239,12.6561634 10.5466432,12.6997627 10.4427147,12.7014698 L7.5083452,12.7014698 C7.40441674,12.6997627 7.30543596,12.6561634 7.2332727,12.5803055 C7.16110944,12.5044475 7.12170365,12.4025748 7.12376204,12.2971963 L7.12376204,11.8929227 L0.39483871,11.8929227 C0.176154681,11.8950618 -1.01751077e-05,12.0754363 1.61882353e-15,12.2971963 L1.61882353e-15,13.5035174 C-0.000714993679,13.7257839 0.175654068,13.906948 0.39483871,13.9090909 L17.5562212,13.9090909 C17.773399,13.9048415 17.9472545,13.7250807 17.9472141,13.5048173 L17.9472141,12.2971963 C17.9472545,12.0769329 17.773399,11.8971721 17.5562212,11.8929227 Z" id="Shape"></path>
                        <path d="M16.0242983,11.3703568 L16.8139757,11.3703568 L16.8139757,2.93780799 C16.8143161,2.72521137 16.7312684,2.52120395 16.5831383,2.37075337 C16.4350081,2.22030279 16.2339561,2.13576013 16.0242983,2.13576041 L16.0319899,2.12796092 L15.2346209,2.12796092 L15.2346209,2.93780799 L16.0242983,2.93780799 L16.0242983,11.3703568 Z" id="Shape"></path>
                        <path d="M1.06144952,11.3703568 L1.85112694,11.3703568 L1.85112694,2.93780799 L2.64080436,2.93780799 L2.64080436,2.12926083 L1.85240888,2.12926083 C1.64275138,2.12891571 1.44156435,2.21312757 1.29319373,2.36333431 C1.14482311,2.51354105 1.06144924,2.71741159 1.06144952,2.9300085 L1.06144952,11.3703568 L1.06144952,11.3703568 Z" id="Shape"></path>
                        <path d="M14.5398073,9.57907392 C14.7247951,9.54082462 14.8564082,9.37400196 14.8526016,9.18259983 L14.8526016,0.519966015 C14.8526016,0.296691884 14.6741044,0.115692438 14.4539171,0.115692438 L14.3680268,0.115692438 L9.13641391,1.2622175 L9.13641391,10.7515973 L9.33639715,10.7087001 L14.5398073,9.57907392 Z M13.6142438,4.02973662 C13.6181066,4.21760067 13.4893036,4.38154463 13.3078592,4.41971113 L13.3001676,4.41971113 L10.3593884,5.05536958 L10.2811898,5.05536958 C10.0687904,5.05536958 9.89660662,4.88077205 9.89660662,4.66539507 L9.89660662,4.65759558 C9.89644423,4.47265092 10.0244134,4.31302592 10.2029912,4.27542056 L13.1514621,3.63976211 L13.2296607,3.63976211 C13.4420601,3.63976211 13.6142438,3.81435964 13.6142438,4.02973662 Z M10.1965815,2.28785047 L13.1450524,1.65219201 L13.2232509,1.65219201 C13.4356504,1.65219201 13.6078341,1.82678955 13.6078341,2.04216653 C13.6055851,2.22623477 13.4786888,2.38452146 13.3014495,2.42434155 L13.3014495,2.40224299 L10.3606703,3.00930331 L10.2747801,3.00930331 C10.0623806,3.00930331 9.8901969,2.83470578 9.8901969,2.6193288 C9.91357934,2.45457448 10.0359585,2.32217216 10.1965815,2.28785047 L10.1965815,2.28785047 Z M10.1965815,6.29418862 L13.1450524,5.65853016 L13.2232509,5.65853016 C13.421082,5.65765087 13.5872979,5.80910572 13.6075078,6.00866256 C13.6277177,6.20821939 13.4953277,6.39076903 13.3014495,6.43067969 L10.3606703,7.06633815 L10.2824717,7.06633815 C10.0690109,7.06636724 9.8949782,6.89278781 9.89147884,6.67636364 C9.89118977,6.49181541 10.0185134,6.3323284 10.1965815,6.29418862 L10.1965815,6.29418862 Z M10.1965815,8.30905692 L13.1450524,7.67339847 L13.2232509,7.67339847 C13.4356504,7.67339847 13.6078341,7.84799601 13.6078341,8.06337298 C13.6055851,8.24744123 13.4786888,8.40572791 13.3014495,8.445548 L10.3606703,9.08120646 L10.2747801,9.08120646 C10.0623806,9.08120646 9.8901969,8.90660892 9.8901969,8.69123195 C9.89244594,8.5071637 10.0193422,8.34887702 10.1965815,8.30905692 L10.1965815,8.30905692 Z" id="Shape"></path>
                        <path d="M3.36125681,9.58687341 L8.56594889,10.7125998 L8.76593213,10.755497 L8.76593213,1.26611725 L3.5099623,0.124791844 L3.43817344,0.124791844 C3.2249396,0.129606217 3.05321032,0.303742918 3.04846251,0.519966015 L3.04846251,9.19039932 C3.04465591,9.38180145 3.176269,9.54862411 3.36125681,9.58687341 Z M7.61218266,9.08900595 L7.60449099,9.08900595 L7.60449099,9.08120646 L7.51860075,9.08120646 L4.57910348,8.44944775 C4.39906044,8.4089879 4.27137372,8.24646482 4.27271889,8.05947324 C4.27271889,7.84409626 4.44490264,7.66949873 4.65730205,7.66949873 L4.74319229,7.66949873 L7.68397151,8.30515718 C7.86121075,8.34497727 7.98810706,8.50326396 7.9903561,8.6873322 C7.9934574,8.79165353 7.955191,8.8928822 7.88411748,8.96837234 C7.81304396,9.04386249 7.71509496,9.08731386 7.61218266,9.08900595 L7.61218266,9.08900595 Z M4.66371177,1.63139337 L4.74319229,1.63139337 L7.71217428,2.28785047 C7.88941352,2.32767056 8.01630983,2.48595724 8.01855886,2.67002549 C8.01855886,2.88540246 7.84637512,3.06 7.6339757,3.06 L7.60577294,3.03790144 L7.5198827,3.03790144 L4.57910348,2.40354291 C4.40186424,2.36372281 4.27496793,2.20543613 4.27271889,2.02136788 C4.27271889,1.80599091 4.44490264,1.63139337 4.65730205,1.63139337 L4.66371177,1.63139337 Z M4.66499372,3.63976211 L4.74319229,3.63976211 L7.71217428,4.28971963 C7.92457369,4.31125732 8.07953906,4.50331461 8.05829912,4.71869159 C8.03705918,4.93406856 7.84765706,5.09120635 7.63525765,5.06966865 L7.59808127,5.06966865 L7.60577294,5.06186916 L7.52757436,5.06186916 L4.57910348,4.41971113 C4.39765914,4.38154463 4.26885611,4.21760067 4.27271889,4.02973662 C4.2762252,3.81280549 4.45103414,3.63902163 4.66499372,3.63976211 L4.66499372,3.63976211 Z M4.28041056,5.97960918 C4.31588802,5.79354914 4.47813851,5.66028386 4.66499372,5.66372982 L4.74319229,5.66372982 L7.71217428,6.30588785 C7.89075203,6.34349321 8.01872125,6.50311821 8.01855886,6.68806287 C8.01855886,6.90702946 7.84350539,7.08453696 7.62756598,7.08453696 L7.60577294,7.07023789 L7.52757436,7.07023789 L4.57910348,6.43457944 C4.37125139,6.39391398 4.23488648,6.19056608 4.27400084,5.97960918 L4.28041056,5.97960918 Z" id="Shape"></path>
                    </g>
                    <g id="CRM-logo" transform="translate(0.000000, 414.000000)" fill="#559FDF" opacity="0.568829257">
                        <polygon id="Fill-1" points="0 19.1304348 20 19.1304348 20 10.4347826"></polygon>
                        <polygon id="Fill-2" points="0 19.1304348 4.03726708 17.4025974 16.5217391 10.9552042 16.5217391 4.34782609"></polygon>
                        <polygon id="Fill-3" points="11.3043478 0 0 19.1304348 3.15435073 16.1239168 11.3043478 7.26890441"></polygon>
                    </g>
                </g>
            </g>
        </g>
    </g>
</svg>