<?xml version="1.0" encoding="UTF-8"?>
<svg width="68px" height="100px" viewBox="0 0 68 100" version="1.1" xmlns="http://www.w3.org/2000/svg" xmlns:xlink="http://www.w3.org/1999/xlink">
    <!-- Generator: Sketch 47.1 (45422) - http://www.bohemiancoding.com/sketch -->
    <title>Icon_PM / Pressed</title>
    <desc>Created with Sketch.</desc>
    <defs></defs>
    <g id="Wireframes-and-Visual" stroke="none" stroke-width="1" fill="none" fill-rule="evenodd">
        <g id="Assets" transform="translate(-379.000000, -1122.000000)" fill="#666666">
            <g id="Icon_PM-/-Pressed" transform="translate(379.000000, 1122.000000)">
                <g id="PM_1_copy">
                    <g fill-rule="nonzero">
                        <g>
                            <path d="M22.8723404,60.6382979 L21.0106383,60.6382979 C19.8404255,60.6382979 18.5106383,60.2925532 17.4468085,59.7074468 C16.0106383,58.9361702 15.0531915,57.7925532 14.6808511,56.3829787 C14.6808511,56.356383 14.6542553,56.3031915 14.6542553,56.2765957 C14.6276596,56.1702128 12.7393617,44.4148936 11.8882979,38.7234043 C10.5053191,29.2819149 10.6382979,16.8617021 10.6382979,16.7553191 C10.6382979,16.1702128 11.1170213,15.7180851 11.7021277,15.7180851 C11.7021277,15.7180851 11.7021277,15.7180851 11.7287234,15.7180851 C12.3138298,15.7180851 12.7925532,16.1968085 12.7659574,16.8085106 C12.7659574,16.9414894 12.606383,29.1755319 13.9893617,38.4574468 C14.787234,43.9361702 16.5957447,55.0265957 16.7287234,55.9308511 C17.2606383,57.7393617 19.5478723,58.5638298 21.0106383,58.5638298 L22.8723404,58.5638298 C23.4574468,58.5638298 23.9361702,59.0425532 23.9361702,59.6276596 C23.9361702,60.212766 23.4574468,60.6382979 22.8723404,60.6382979 Z" id="Shape"></path>
                            <path d="M45.3457447,60.6382979 L43.4574468,60.6382979 C42.8723404,60.6382979 42.393617,60.1595745 42.393617,59.5744681 C42.393617,58.9893617 42.8723404,58.5106383 43.4574468,58.5106383 L45.3457447,58.5106383 C46.8351064,58.5106383 49.2553191,57.4202128 49.6276596,55.9042553 C49.7340426,55.2393617 51.5425532,44.2021277 52.3404255,38.75 C53.856383,28.3776596 53.5904255,19.2553191 53.5904255,19.1755319 C53.5904255,19.1755319 53.5904255,19.1489362 53.5904255,19.1489362 C53.5904255,18.643617 53.4840426,18.3244681 53.4308511,18.1914894 C52.9787234,18.0585106 52.6595745,17.6595745 52.6595745,17.1542553 C52.6595745,16.5691489 53.1382979,16.0904255 53.7234043,16.0904255 C54.7074468,16.0904255 55.7180851,17.0212766 55.7180851,19.1223404 C55.7180851,19.5744681 55.9574468,28.6968085 54.4414894,39.0691489 C53.6170213,44.6808511 51.7287234,56.1702128 51.7021277,56.2765957 C51.7021277,56.3031915 51.7021277,56.3031915 51.7021277,56.3297872 C51.0904255,59.1223404 47.5531915,60.6382979 45.3457447,60.6382979 Z" id="Shape"></path>
                            <path d="M11.1702128,41.143617 C10.7180851,41.143617 10.2925532,40.8510638 10.1595745,40.3723404 C7.23404255,30.3989362 4.60106383,16.9946809 8.48404255,9.62765957 C11.7819149,3.40425532 17.4468085,0.132978723 24.8670213,0.132978723 L59.4946809,0.132978723 C60.0265957,0.132978723 60.4787234,0.505319149 60.5585106,1.03723404 C60.6117021,1.30319149 61.5159574,7.52659574 57.606383,13.537234 C53.1382979,20.4255319 46.6489362,24.2819149 39.3085106,24.3882979 C30.1861702,24.5212766 21.7819149,22.4202128 11.2234043,17.287234 C10.6914894,17.0212766 10.4787234,16.3829787 10.7180851,15.8776596 C10.9840426,15.3457447 11.6223404,15.1329787 12.1276596,15.3723404 C22.3670213,20.3457447 30.4787234,22.393617 39.2553191,22.2606383 C47.712766,22.1276596 52.9255319,16.8085106 55.7978723,12.3670213 C58.4308511,8.29787234 58.5904255,4.04255319 58.5106383,2.23404255 L24.8670213,2.23404255 C18.1914894,2.23404255 13.2978723,5.05319149 10.3457447,10.6117021 C7.57978723,15.8510638 8.21808511,26.1968085 12.1808511,39.7606383 C12.3404255,40.3191489 12.0212766,40.9042553 11.462766,41.0904255 C11.356383,41.1170213 11.2765957,41.143617 11.1702128,41.143617 Z" id="Shape"></path>
                            <path d="M55.212766,39.3617021 C55.1595745,39.3617021 55.0797872,39.3617021 55.0265957,39.3351064 C54.4414894,39.2287234 54.0691489,38.6702128 54.1755319,38.0851064 L58.0851064,16.9148936 C58.1914894,16.356383 58.0585106,15.7978723 57.7393617,15.3191489 C57.4202128,14.8404255 56.9414894,14.5212766 56.3829787,14.4414894 C55.7978723,14.3351064 55.4255319,13.7765957 55.5319149,13.1914894 C55.6382979,12.606383 56.1968085,12.2340426 56.7819149,12.3404255 C57.8989362,12.5531915 58.856383,13.1648936 59.5212766,14.1223404 C60.1861702,15.0797872 60.3989362,16.1968085 60.212766,17.3138298 L56.3031915,38.4840426 C56.1702128,38.9893617 55.7180851,39.3617021 55.212766,39.3617021 Z" id="Shape"></path>
                            <path d="M38.7765957,71.9414894 L28.0319149,71.9414894 C18.1117021,71.9414894 10.0265957,63.856383 10.0265957,53.9361702 L10.0265957,40.0797872 C10.0265957,39.2819149 10.2659574,38.4840426 10.6914894,37.8191489 C11.0106383,37.3138298 11.6755319,37.1808511 12.1542553,37.5 C12.6595745,37.8191489 12.7925532,38.4840426 12.4734043,38.962766 C12.2606383,39.3085106 12.1542553,39.6808511 12.1542553,40.106383 L12.1542553,53.962766 C12.1542553,62.712766 19.2819149,69.8404255 28.0319149,69.8404255 L38.7765957,69.8404255 C47.5265957,69.8404255 54.6542553,62.712766 54.6542553,53.962766 L54.6542553,40.106383 C54.6542553,39.4946809 54.4414894,38.6170213 54.2819149,38.3776596 C53.962766,37.8989362 54.0691489,37.2340426 54.5744681,36.8882979 C55.0531915,36.5691489 55.7180851,36.6755319 56.0638298,37.1808511 C56.5957447,37.9787234 56.7819149,39.3882979 56.7819149,40.0797872 L56.7819149,53.9361702 C56.7819149,63.856383 48.6968085,71.9414894 38.7765957,71.9414894 Z" id="Shape"></path>
                            <path d="M23.1117021,60.6382979 C22.606383,60.6382979 22.1542553,60.2659574 22.0744681,59.7606383 C22.0212766,59.5212766 21.9946809,59.2553191 21.9946809,59.0159574 L21.9946809,57.7925532 C21.9946809,55.4521277 23.9095745,53.537234 26.25,53.537234 L40.2393617,53.537234 C42.5797872,53.537234 44.4946809,55.4521277 44.4946809,57.7925532 L44.4946809,59.0159574 C44.4946809,59.2287234 44.4680851,59.3882979 44.4148936,59.5478723 C44.4148936,59.5478723 44.4148936,59.5744681 44.4148936,59.6010638 C44.3085106,60.1861702 43.7234043,60.5585106 43.1648936,60.4255319 C42.5797872,60.3191489 42.2074468,59.7340426 42.3404255,59.1755319 C42.3670213,59.0957447 42.3670213,59.0425532 42.393617,58.9893617 L42.393617,57.7925532 C42.393617,56.6223404 41.4361702,55.6648936 40.2659574,55.6648936 L26.2765957,55.6648936 C25.106383,55.6648936 24.1489362,56.6223404 24.1489362,57.7925532 L24.1489362,59.0159574 C24.1489362,59.1489362 24.1489362,59.2819149 24.1755319,59.3882979 C24.2819149,59.9734043 23.9095745,60.5319149 23.3244681,60.6117021 C23.2180851,60.6117021 23.1648936,60.6382979 23.1117021,60.6382979 Z" id="Shape"></path>
                            <path d="M33.4308511,62.287234 C30.9308511,62.287234 28.9893617,61.2234043 27.9521277,59.3085106 C27.6861702,58.7765957 27.8723404,58.1382979 28.4042553,57.8723404 C28.9095745,57.606383 29.5744681,57.7925532 29.8404255,58.3244681 C30.6648936,59.8670213 32.2340426,60.1861702 33.4308511,60.1861702 C35.9574468,60.1861702 36.6755319,59.1755319 36.9680851,58.4308511 C37.2074468,57.8989362 37.8191489,57.6329787 38.3510638,57.8457447 C38.8829787,58.0851064 39.1489362,58.6968085 38.9361702,59.2287234 C37.8723404,61.7553191 35.3723404,62.287234 33.4308511,62.287234 Z" id="Shape"></path>
                            <path d="M35.8776596,67.1542553 L30.7180851,67.1542553 C30.1329787,67.1542553 29.6542553,66.6755319 29.6542553,66.0904255 C29.6542553,65.5053191 30.1329787,65.0265957 30.7180851,65.0265957 L35.8776596,65.0265957 C36.462766,65.0265957 36.9414894,65.5053191 36.9414894,66.0904255 C36.9414894,66.6755319 36.462766,67.1542553 35.8776596,67.1542553 Z" id="Shape"></path>
                            <path d="M36.5691489,50.9308511 L29.9202128,50.9308511 C28.0319149,50.9308511 26.4893617,49.3882979 26.4893617,47.5 C26.4893617,47.4734043 26.4893617,47.4734043 26.4893617,47.4468085 L26.7553191,42.606383 C26.7819149,42.0212766 27.287234,41.5691489 27.8723404,41.5957447 C28.4574468,41.6223404 28.9095745,42.1276596 28.8829787,42.712766 L28.6170213,47.5265957 C28.6170213,48.2180851 29.2021277,48.8031915 29.9202128,48.8031915 L36.5691489,48.8031915 C37.287234,48.8031915 37.8457447,48.2446809 37.8723404,47.5265957 L37.606383,42.712766 C37.5797872,42.1276596 38.0319149,41.6223404 38.6170213,41.5957447 C39.2021277,41.5691489 39.7074468,42.0212766 39.7340426,42.606383 L40,47.4468085 C40,47.4734043 40,47.4734043 40,47.5 C40,49.3882979 38.4574468,50.9308511 36.5691489,50.9308511 Z" id="Shape"></path>
                            <path d="M15.5319149,31.9680851 C15.3457447,31.9680851 15.1329787,31.9148936 14.9734043,31.8085106 C14.4680851,31.4893617 14.3351064,30.8510638 14.6276596,30.3457447 C15.8510638,28.4042553 18.2978723,27.1808511 20.9840426,27.1808511 C23.4042553,27.1808511 25.7712766,28.3776596 27.1542553,30.2925532 C27.5,30.7712766 27.393617,31.4361702 26.9148936,31.7819149 C26.4361702,32.1276596 25.7712766,32.0212766 25.4255319,31.5425532 C24.6808511,30.5053191 23.0851064,29.3351064 20.9840426,29.3351064 C19.0425532,29.3351064 17.2606383,30.1861702 16.4361702,31.5159574 C16.25,31.7819149 15.9042553,31.9680851 15.5319149,31.9680851 Z" id="Shape"></path>
                            <path d="M18.1382979,38.0053191 C18.0053191,38.0053191 17.8723404,37.9787234 17.7393617,37.9255319 C17.2074468,37.6861702 16.9414894,37.0744681 17.1808511,36.5425532 C17.8723404,34.893617 19.3617021,33.8297872 20.9840426,33.8297872 C22.4734043,33.8297872 23.9095745,34.8404255 24.6808511,36.4893617 C24.9468085,37.0212766 24.7074468,37.6595745 24.1755319,37.8989362 C23.643617,38.1648936 23.0053191,37.9255319 22.7659574,37.393617 C22.4202128,36.6755319 21.7287234,35.9308511 20.9840426,35.9308511 C20.212766,35.9308511 19.5212766,36.462766 19.1489362,37.3404255 C18.962766,37.7659574 18.5638298,38.0053191 18.1382979,38.0053191 Z" id="Shape"></path>
                            <path d="M42.7925532,38.0053191 C42.6595745,38.0053191 42.5265957,37.9787234 42.393617,37.9255319 C41.8617021,37.6861702 41.5957447,37.0744681 41.8351064,36.5425532 C42.5265957,34.893617 44.0159574,33.8297872 45.6382979,33.8297872 C47.1276596,33.8297872 48.5638298,34.8404255 49.3351064,36.4893617 C49.6010638,37.0212766 49.3617021,37.6595745 48.8297872,37.8989362 C48.2978723,38.1648936 47.6595745,37.9255319 47.4202128,37.393617 C47.0744681,36.6755319 46.3829787,35.9308511 45.6382979,35.9308511 C44.8670213,35.9308511 44.1755319,36.462766 43.8031915,37.3404255 C43.5904255,37.7659574 43.2180851,38.0053191 42.7925532,38.0053191 Z" id="Shape"></path>
                            <path d="M40.1861702,31.7021277 C40,31.7021277 39.787234,31.6489362 39.6276596,31.5425532 C39.1223404,31.2234043 38.9893617,30.5851064 39.2819149,30.0797872 C40.5053191,28.1382979 42.9521277,26.9148936 45.6382979,26.9148936 C48.0585106,26.9148936 50.4255319,28.1117021 51.8085106,30.0265957 C52.1542553,30.5053191 52.0478723,31.1702128 51.5691489,31.5159574 C51.0904255,31.8617021 50.4255319,31.7553191 50.0797872,31.2765957 C49.3351064,30.2393617 47.7393617,29.0691489 45.6382979,29.0691489 C43.6968085,29.0691489 41.9148936,29.9202128 41.0904255,31.25 C40.8776596,31.5159574 40.5319149,31.7021277 40.1861702,31.7021277 Z" id="Shape"></path>
                            <path d="M10.8776596,52.7393617 C6.86170213,52.7393617 3.72340426,49.4680851 3.72340426,45.3191489 C3.72340426,41.2234043 7.04787234,37.8989362 11.143617,37.8989362 C11.7287234,37.8989362 12.2074468,38.3776596 12.2074468,38.962766 C12.2074468,39.5478723 11.7287234,40.0265957 11.143617,40.0265957 C8.21808511,40.0265957 5.85106383,42.393617 5.85106383,45.3191489 C5.85106383,48.3510638 8.00531915,50.6117021 10.8776596,50.6117021 C11.462766,50.6117021 11.9414894,51.0904255 11.9414894,51.6755319 C11.9414894,52.2606383 11.462766,52.7393617 10.8776596,52.7393617 Z" id="Shape"></path>
                            <path d="M55.9840426,52.3404255 C55.3989362,52.3404255 54.9202128,51.8617021 54.9202128,51.2765957 C54.9202128,50.6914894 55.3989362,50.212766 55.9840426,50.212766 C58.9095745,50.212766 61.2765957,47.8457447 61.2765957,44.9202128 C61.2765957,41.9946809 58.9095745,39.6276596 55.9840426,39.6276596 C55.3989362,39.6276596 54.9202128,39.1489362 54.9202128,38.5638298 C54.9202128,37.9787234 55.3989362,37.5 55.9840426,37.5 C60.0797872,37.5 63.4042553,40.8244681 63.4042553,44.9202128 C63.4042553,49.0159574 60.0797872,52.3404255 55.9840426,52.3404255 Z" id="Shape"></path>
                            <path d="M33.0319149,84.893617 C29.4946809,84.893617 26.5957447,82.4734043 26.5957447,79.4946809 L26.5957447,70.9308511 C26.5957447,70.3457447 27.0744681,69.8670213 27.6595745,69.8670213 C28.2446809,69.8670213 28.7234043,70.3457447 28.7234043,70.9308511 L28.7234043,79.5212766 C28.7234043,81.3031915 30.6914894,82.7925532 33.0319149,82.7925532 C35.3723404,82.7925532 37.3404255,81.3031915 37.3404255,79.5212766 L37.3404255,70.9574468 C37.3404255,70.3723404 37.8191489,69.893617 38.4042553,69.893617 C38.9893617,69.893617 39.4680851,70.3723404 39.4680851,70.9574468 L39.4680851,79.5212766 C39.4680851,82.4734043 36.5691489,84.893617 33.0319149,84.893617 Z" id="Shape"></path>
                            <path d="M35.1861702,88.8829787 L30.9840426,88.8829787 C26.6223404,88.8829787 22.1808511,85.1595745 22.1808511,81.4893617 L22.1808511,79.1489362 C22.1808511,76.6755319 24.5212766,74.4946809 27.1808511,74.4946809 C27.7659574,74.4946809 28.2446809,74.9734043 28.2446809,75.5585106 C28.2446809,76.143617 27.7659574,76.6223404 27.1808511,76.6223404 C25.6914894,76.6223404 24.3085106,77.8457447 24.3085106,79.1489362 L24.3085106,81.4893617 C24.3085106,83.7234043 27.606383,86.7553191 30.9840426,86.7553191 L35.1861702,86.7553191 C38.5638298,86.7553191 41.8617021,83.75 41.8617021,81.4893617 L41.8617021,79.1489362 C41.8617021,76.7021277 39.0957447,76.6223404 38.8031915,76.6223404 C38.2180851,76.6223404 37.7393617,76.143617 37.7393617,75.5585106 C37.7393617,74.9734043 38.2180851,74.4946809 38.8031915,74.4946809 C42.3670213,74.4946809 43.9893617,76.9148936 43.9893617,79.1489362 L43.9893617,81.4893617 C43.9893617,85.1595745 39.5478723,88.8829787 35.1861702,88.8829787 Z" id="Shape"></path>
                            <path d="M32.9787234,95.1329787 C32.9787234,95.1329787 32.9787234,95.1329787 32.9787234,95.1329787 C32.6595745,95.1329787 32.3404255,94.9734043 32.1542553,94.7340426 L26.5425532,87.7659574 C26.1702128,87.3138298 26.25,86.6489362 26.7021277,86.2765957 C27.1542553,85.9042553 27.8191489,85.9840426 28.1914894,86.4361702 L32.9787234,92.393617 L37.9787234,86.4095745 C38.3510638,85.9574468 39.0159574,85.9042553 39.4680851,86.2765957 C39.9202128,86.6489362 39.9734043,87.3138298 39.6010638,87.7659574 L33.7765957,94.7340426 C33.5904255,95 33.2978723,95.1329787 32.9787234,95.1329787 Z" id="Shape"></path>
                            <path d="M66.0904255,99.8670213 L1.11702128,99.8670213 C0.531914894,99.8670213 0.0531914894,99.3882979 0.0531914894,98.8031915 L0.0531914894,96.7021277 C0.0531914894,91.356383 2.15425532,86.5425532 5.98404255,83.1648936 C10.0531915,79.5744681 15.8776596,77.6861702 22.7925532,77.6861702 C23.3776596,77.6861702 23.856383,78.1648936 23.856383,78.75 C23.856383,79.3351064 23.3776596,79.8138298 22.7925532,79.8138298 C10.2659574,79.8138298 2.15425532,86.462766 2.15425532,96.7287234 L2.15425532,97.7659574 L64.9734043,97.7659574 L64.9734043,96.7287234 C64.9734043,86.9414894 55.8510638,79.8138298 43.2712766,79.8138298 C42.6861702,79.8138298 42.2074468,79.3351064 42.2074468,78.75 C42.2074468,78.1648936 42.6861702,77.6861702 43.2712766,77.6861702 C49.9734043,77.6861702 56.0638298,79.6276596 60.4255319,83.1382979 C64.7340426,86.6223404 67.1010638,91.462766 67.1010638,96.7021277 L67.1010638,98.8031915 C67.1542553,99.3882979 66.6755319,99.8670213 66.0904255,99.8670213 Z" id="Shape"></path>
                        </g>
                    </g>
                </g>
            </g>
        </g>
    </g>
</svg>