<?xml version="1.0" encoding="UTF-8"?>
<svg width="72px" height="100px" viewBox="0 0 72 100" version="1.1" xmlns="http://www.w3.org/2000/svg" xmlns:xlink="http://www.w3.org/1999/xlink">
    <!-- Generator: Sketch 47.1 (45422) - http://www.bohemiancoding.com/sketch -->
    <title>Icon_Researcher / Pressed Copy</title>
    <desc>Created with Sketch.</desc>
    <defs></defs>
    <g id="Wireframes-and-Visual" stroke="none" stroke-width="1" fill="none" fill-rule="evenodd">
        <g id="Elements" transform="translate(-1104.000000, -267.000000)" fill-rule="nonzero" fill="#666666">
            <g id="Icon_Researcher-/-Pressed-Copy" transform="translate(1104.000000, 267.000000)">
                <g id="Icon_Researcher-/-Pressed-new">
                    <g id="Researcher_copy">
                        <path d="M35.6338028,76.1971831 C25.971831,76.1971831 15.6338028,64.1971831 15.2112676,63.6901408 C15.1830986,63.6619718 15.1830986,63.6619718 15.1549296,63.6338028 C11.5492958,58.7887324 11.5492958,53.0140845 11.5492958,51.1267606 L11.5492958,32.4225352 C11.5492958,29.7746479 13.0422535,28.1690141 14.4788732,26.6478873 C15.0422535,26.056338 15.6056338,25.4366197 16.084507,24.7605634 C16.3098592,24.4225352 16.3098592,23.971831 16.2535211,23.2676056 C16.1971831,22.4507042 16.1408451,21.4366197 16.7323944,20.4788732 C17.3239437,19.5211268 22.084507,18.1408451 23.0140845,17.8873239 C25.943662,17.0704225 30.4225352,16.084507 35.0140845,16.084507 C44.5633803,16.084507 52.9577465,18.6760563 54.3098592,20.3943662 C55.0704225,21.3521127 54.9577465,22.5070423 54.8450704,23.4084507 C54.7887324,23.943662 54.7323944,24.5070423 54.9014085,24.7605634 C55.2676056,25.2676056 55.8028169,25.8028169 56.3380282,26.3661972 C57.8591549,27.943662 59.7183099,29.915493 59.7183099,32.4507042 L59.7183099,51.1549296 C59.7183099,53.1830986 59.7183099,59.2957746 56.084507,63.6901408 C56.084507,63.6901408 56.084507,63.6901408 56.084507,63.6901408 C55.6338028,64.1971831 45.3802817,76.1971831 35.6338028,76.1971831 Z M16.9295775,62.2535211 C17.4647887,62.8732394 27.2112676,73.943662 35.6338028,73.943662 C44.2816901,73.943662 54.1126761,62.5070423 54.3380282,62.2253521 C57.4647887,58.4507042 57.4647887,52.9295775 57.4647887,51.1267606 L57.4647887,32.4225352 C57.4647887,30.7605634 56.056338,29.2957746 54.7042254,27.8873239 C54.1126761,27.2676056 53.5492958,26.6760563 53.0985915,26.084507 C52.3943662,25.1549296 52.5070423,24.028169 52.6197183,23.1549296 C52.6760563,22.5633803 52.7323944,22.028169 52.5633803,21.7746479 C51.8028169,20.9859155 44.8169014,18.3380282 35.0140845,18.3380282 C27.4647887,18.3380282 19.8591549,21.1830986 18.5633803,21.8591549 C18.4507042,22.1690141 18.4507042,22.5633803 18.5070423,23.1549296 C18.5633803,24 18.6197183,25.0704225 17.943662,26.084507 C17.3802817,26.8732394 16.7605634,27.5492958 16.1690141,28.1971831 C14.8732394,29.6056338 13.8591549,30.7042254 13.8591549,32.4507042 L13.8591549,51.1549296 C13.8028169,52.8169014 13.8028169,58 16.9295775,62.2535211 Z" id="Shape"></path>
                        <path d="M58.5915493,47.2676056 C58.4225352,47.2676056 58.2535211,47.2394366 58.084507,47.1549296 C57.5211268,46.8732394 57.2957746,46.1971831 57.5774648,45.6338028 C59.3239437,42.1408451 60.3380282,36.6760563 60.3380282,31.0704225 C60.3380282,19.8873239 55.0422535,10.3943662 46.1408451,5.6056338 C46.056338,5.85915493 45.971831,6.1971831 45.915493,6.3943662 C45.7183099,7.12676056 45.5211268,7.88732394 44.7042254,8.02816901 C44.2535211,8.11267606 43.8028169,7.94366197 43.4929577,7.54929577 C42.8732394,6.76056338 40.3661972,4.5915493 38.8169014,3.57746479 C37.5211268,2.73239437 33.943662,2.50704225 31.4084507,2.53521127 L31.4084507,5.69014085 C31.4084507,6.25352113 31.0140845,6.70422535 30.4507042,6.81690141 L20.9295775,8.30985915 C21.0140845,9.4084507 20.8732394,10.9014085 19.6338028,11.6619718 C13.8873239,15.2394366 11.3239437,21.0985915 11.3239437,30.6760563 C11.3239437,34.9859155 11.5492958,41.1830986 13.4647887,45.1549296 C13.7464789,45.7183099 13.4929577,46.3943662 12.9295775,46.6478873 C12.3661972,46.9295775 11.6901408,46.6760563 11.4366197,46.1126761 C9.32394366,41.7183099 9.07042254,35.1830986 9.07042254,30.6478873 C9.07042254,20.3380282 12.056338,13.6901408 18.4507042,9.71830986 C18.8169014,9.49295775 18.7605634,8.30985915 18.5633803,7.63380282 C18.4788732,7.32394366 18.5352113,6.98591549 18.7042254,6.73239437 C18.8732394,6.45070423 19.1549296,6.28169014 19.4647887,6.22535211 L29.1549296,4.73239437 L29.1549296,1.43661972 C29.1549296,0.845070423 29.6338028,0.338028169 30.2253521,0.309859155 C30.9577465,0.281690141 37.4647887,0.0281690141 40.056338,1.69014085 C41.1267606,2.3943662 42.8169014,3.71830986 44.056338,4.87323944 C44.2816901,4.1971831 44.6478873,3.57746479 45.2957746,3.29577465 C45.7746479,3.09859155 46.2816901,3.12676056 46.7605634,3.35211268 C56.7042254,8.45070423 62.6197183,18.7887324 62.6197183,31.0422535 C62.6197183,33.8873239 62.3380282,41.1267606 59.6056338,46.6197183 C59.4084507,47.0140845 59.0140845,47.2676056 58.5915493,47.2676056 Z" id="Shape"></path>
                        <path d="M12.1408451,53.8028169 C8.05633803,53.8028169 4.70422535,49.4929577 4.70422535,44.2253521 C4.70422535,41.8028169 4.92957746,38.7605634 6.5915493,36.8169014 C7.6056338,35.6338028 9.07042254,35.1267606 10.1126761,34.8732394 C10.7323944,34.7323944 11.3239437,35.1267606 11.4647887,35.7183099 C11.6056338,36.3380282 11.2112676,36.9295775 10.6197183,37.0704225 C9.6056338,37.2957746 8.78873239,37.7183099 8.30985915,38.2816901 C7.09859155,39.6901408 6.95774648,42.3380282 6.95774648,44.2253521 C6.95774648,48.2535211 9.26760563,51.5492958 12.1408451,51.5492958 C12.7605634,51.5492958 13.2676056,52.056338 13.2676056,52.6760563 C13.2676056,53.2957746 12.7605634,53.8028169 12.1408451,53.8028169 Z" id="Shape"></path>
                        <path d="M59.4929577,53.8028169 C58.8732394,53.8028169 58.3661972,53.2957746 58.3661972,52.6760563 C58.3661972,52.056338 58.8732394,51.5492958 59.4929577,51.5492958 C62.3380282,51.5492958 64.6760563,48.2535211 64.6760563,44.2253521 C64.6760563,42.3380282 64.5352113,39.6901408 63.3239437,38.2816901 C62.8450704,37.7183099 62.028169,37.2957746 61.0140845,37.0704225 C60.3943662,36.9295775 60.028169,36.3380282 60.1690141,35.7183099 C60.3098592,35.0985915 60.9014085,34.7323944 61.5211268,34.8732394 C62.5633803,35.0985915 64.028169,35.6338028 65.0422535,36.8169014 C66.7323944,38.7605634 66.9295775,41.8028169 66.9295775,44.2253521 C66.9295775,49.4929577 63.6056338,53.8028169 59.4929577,53.8028169 Z" id="Shape"></path>
                        <path d="M51.1666851,35.9577465 C50.8413979,35.9577465 50.5161107,35.7887324 50.340956,35.4507042 C49.540249,34.1267606 47.8137245,33.2535211 45.9370675,33.2535211 C44.2355651,33.2535211 42.6341511,33.9577465 41.7583778,35.1126761 C41.4080685,35.5915493 40.757494,35.6478873 40.3571405,35.2535211 C39.9317649,34.8591549 39.8817207,34.1267606 40.23203,33.6760563 C41.4831347,32.0140845 43.6100127,31 45.9370675,31 C48.5143432,31 50.8163758,32.2394366 51.9924142,34.2112676 C52.2926794,34.7183099 52.1675689,35.4225352 51.7171712,35.7605634 C51.5670386,35.8732394 51.3668619,35.9577465 51.1666851,35.9577465 Z" id="Shape"></path>
                        <path d="M30.1666851,35.9577465 C29.8413979,35.9577465 29.5161107,35.7887324 29.340956,35.4507042 C28.540249,34.1267606 26.8137245,33.2535211 24.9370675,33.2535211 C23.2355651,33.2535211 21.6341511,33.9577465 20.7583778,35.1126761 C20.4080685,35.5915493 19.757494,35.6478873 19.3571405,35.2535211 C18.9317649,34.8591549 18.8817207,34.1267606 19.23203,33.6760563 C20.4831347,32.0140845 22.6100127,31 24.9370675,31 C27.5143432,31 29.8163758,32.2394366 30.9924142,34.2112676 C31.2926794,34.7183099 31.1675689,35.4225352 30.7171712,35.7605634 C30.5670386,35.8732394 30.3668619,35.9577465 30.1666851,35.9577465 Z" id="Shape"></path>
                        <path d="M34.9859155,52.7605634 C33.5492958,52.7605634 32.1971831,52.1690141 31.3521127,51.1830986 C30.9577465,50.7042254 31.0140845,50 31.4929577,49.6056338 C31.971831,49.2112676 32.6760563,49.2676056 33.0704225,49.7464789 C33.4647887,50.2253521 34.1971831,50.5070423 34.9859155,50.5070423 C35.7464789,50.5070423 36.4788732,50.1971831 36.9014085,49.7464789 C37.2957746,49.2676056 38.028169,49.2112676 38.4788732,49.6056338 C38.9577465,50 39.0140845,50.7323944 38.6197183,51.1830986 C37.7746479,52.1971831 36.4225352,52.7605634 34.9859155,52.7605634 Z" id="Shape"></path>
                        <path d="M34.9859155,62.4225352 C29.0140845,62.4225352 25.4647887,60.056338 24.5070423,59.3239437 C24,58.9577465 23.915493,58.2535211 24.2816901,57.7464789 C24.6478873,57.2394366 25.3521127,57.1549296 25.8591549,57.5211268 C26.6760563,58.1408451 29.7183099,60.1408451 34.9859155,60.1408451 C40,60.1408451 44.2253521,58.1408451 45.3239437,57.4647887 C45.8591549,57.1267606 46.5352113,57.2957746 46.8732394,57.8028169 C47.2112676,58.3098592 47.0422535,59.0140845 46.5352113,59.3521127 C45.2112676,60.2253521 40.5633803,62.4225352 34.9859155,62.4225352 Z" id="Shape"></path>
                        <path d="M35.7183099,88.5915493 C31.4366197,88.5915493 27.971831,85.1267606 27.971831,80.8450704 L27.971831,73.3802817 C27.971831,72.7605634 28.4788732,72.2535211 29.0985915,72.2535211 C29.7183099,72.2535211 30.2253521,72.7605634 30.2253521,73.3802817 L30.2253521,80.8450704 C30.2253521,83.8873239 32.6760563,86.3380282 35.7183099,86.3380282 C38.7605634,86.3380282 41.2112676,83.8873239 41.2112676,80.8450704 L41.2112676,73.3239437 C41.2112676,72.7042254 41.7183099,72.1971831 42.3380282,72.1971831 C42.9577465,72.1971831 43.4647887,72.7042254 43.4647887,73.3239437 L43.4647887,80.8450704 C43.4366197,85.1267606 39.971831,88.5915493 35.7183099,88.5915493 Z" id="Shape"></path>
                        <path d="M35.7183099,99.2957746 C35.4366197,99.2957746 35.1830986,99.2112676 34.9577465,99.0140845 C32.3380282,96.6478873 27.971831,92.3380282 27.971831,90.2816901 L27.971831,80.2816901 C27.971831,79.6619718 28.4788732,79.1549296 29.0985915,79.1549296 C29.7183099,79.1549296 30.2253521,79.6619718 30.2253521,80.2816901 L30.2253521,90.2816901 C30.3380282,90.9859155 32.5352113,93.6338028 35.7183099,96.6478873 C38.9014085,93.6338028 41.0985915,90.9859155 41.2112676,90.2816901 L41.2112676,80.3098592 C41.2112676,79.6901408 41.7183099,79.1830986 42.3380282,79.1830986 C42.9577465,79.1830986 43.4647887,79.6901408 43.4647887,80.3098592 L43.4647887,90.3098592 C43.4647887,92.3661972 39.0985915,96.6478873 36.4788732,99.0422535 C36.2535211,99.2112676 35.971831,99.2957746 35.7183099,99.2957746 Z" id="Shape"></path>
                        <path d="M29.0985915,89.8028169 C28.7323944,89.8028169 28.3943662,89.6338028 28.1971831,89.3239437 C27.5492958,88.4225352 26.2253521,87.1267606 25.3521127,87.1267606 L25.3521127,87.1267606 C25.3521127,87.1267606 25.3521127,87.1267606 25.3239437,87.1267606 C24.4788732,87.1267606 23.1830986,88.4225352 22.5633803,89.3239437 C22.2816901,89.7183099 21.7746479,89.915493 21.2957746,89.7464789 C20.8169014,89.6056338 20.5070423,89.1549296 20.5070423,88.6760563 L20.5070423,78.3943662 C20.5070423,75.915493 22.5352113,73.8873239 25.0140845,73.8873239 L25.7183099,73.8873239 C28.1971831,73.8873239 30.2253521,75.915493 30.2253521,78.3943662 L30.2253521,88.6760563 C30.2253521,89.1549296 29.915493,89.6056338 29.4366197,89.7464789 C29.3239437,89.7746479 29.2112676,89.8028169 29.0985915,89.8028169 Z M25.3802817,84.8732394 C26.3098592,84.9014085 27.2112676,85.3521127 27.971831,85.915493 L27.971831,78.3943662 C27.971831,77.1549296 26.9577465,76.1408451 25.7183099,76.1408451 L25.0140845,76.1408451 C23.7746479,76.1408451 22.7605634,77.1549296 22.7605634,78.3943662 L22.7605634,85.8873239 C23.4929577,85.2957746 24.4225352,84.8450704 25.3802817,84.8732394 L25.3802817,84.8732394 Z" id="Shape"></path>
                        <path d="M49.8028169,89.5492958 C49.4366197,89.5492958 49.0985915,89.3802817 48.9014085,89.0704225 C48.2535211,88.1690141 46.9295775,86.8732394 46.056338,86.8732394 L46.056338,86.8732394 C46.056338,86.8732394 46.056338,86.8732394 46.028169,86.8732394 C45.1830986,86.8732394 43.8873239,88.1690141 43.2676056,89.0704225 C42.9859155,89.4647887 42.4788732,89.6619718 42,89.4929577 C41.5211268,89.3521127 41.2112676,88.9014085 41.2112676,88.4225352 L41.2112676,78.1408451 C41.2112676,75.6619718 43.2394366,73.6338028 45.7183099,73.6338028 L46.4225352,73.6338028 C48.9014085,73.6338028 50.9295775,75.6619718 50.9295775,78.1408451 L50.9295775,88.4225352 C50.9295775,88.9014085 50.6197183,89.3521127 50.1408451,89.4929577 C50.028169,89.5211268 49.915493,89.5492958 49.8028169,89.5492958 Z M46.084507,84.6197183 C47.0140845,84.6478873 47.915493,85.0985915 48.6760563,85.6619718 L48.6760563,78.1408451 C48.6760563,76.9014085 47.6619718,75.8873239 46.4225352,75.8873239 L45.7183099,75.8873239 C44.4788732,75.8873239 43.4647887,76.9014085 43.4647887,78.1408451 L43.4647887,85.6338028 C44.1971831,85.0704225 45.0985915,84.6197183 46.028169,84.6197183 C46.028169,84.6197183 46.056338,84.6197183 46.084507,84.6197183 L46.084507,84.6197183 Z" id="Shape"></path>
                        <path d="M70,99.8591549 L1.18309859,99.8591549 C0.563380282,99.8591549 0.0563380282,99.3521127 0.0563380282,98.7323944 L0.0563380282,96.5070423 C0.0563380282,91.1267606 2.3943662,86.028169 6.67605634,82.1690141 C10.7605634,78.4788732 16.2253521,76.3380282 21.6338028,76.3380282 C22.2535211,76.3380282 22.7605634,76.8450704 22.7605634,77.4647887 C22.7605634,78.084507 22.2535211,78.5915493 21.6338028,78.5915493 C16.7605634,78.5915493 11.8591549,80.5070423 8.1971831,83.8309859 C4.42253521,87.2676056 2.33802817,91.7746479 2.33802817,96.5070423 L2.33802817,97.6056338 L68.8732394,97.6056338 L68.8732394,96.5070423 C68.8732394,86.7887324 60.1690141,78.5915493 49.8309859,78.5915493 C49.2112676,78.5915493 48.7042254,78.084507 48.7042254,77.4647887 C48.7042254,76.8450704 49.2112676,76.3380282 49.8309859,76.3380282 C61.3802817,76.3380282 71.1267606,85.5774648 71.1267606,96.5070423 L71.1267606,98.7323944 C71.1267606,99.3521127 70.6197183,99.8591549 70,99.8591549 Z" id="Shape"></path>
                    </g>
                </g>
            </g>
        </g>
    </g>
</svg>